<?xml version="1.0" encoding="UTF-8"?>
<!-- Created with Inkscape (http://www.inkscape.org/) -->
<svg width="1654.8" height="584.54" version="1.1" viewBox="0 0 1654.8 584.54" xmlns="http://www.w3.org/2000/svg">
 <g>
  <path d="m1301.9 357.19c2.9687-40.677 26.563-74.323 66.771-84.844 17.083-5 37.656-5 54.219-0.521h-0.521c39.219 10.052 65.312 42.708 68.854 85.365zm224.48 8.1249v-0.573 0.521c-0.989-64.323-36.198-110.52-92.917-126.09h-0.521c-24.583-6.5104-51.719-7.0312-75.312 0-60.104 16.771-91.406 69.896-91.406 128.02 0 29.635 10.208 60.729 28.594 84.948 23.646 29.635 62.812 44.687 101.98 44.687 32.604 0.52 66.302-8.541 89.375-30.156 19.583-20.052-6.5104-40.677-24.114-24.583-19.531 15.052-43.698 21.041-66.771 21.041-50.26 0-85.417-34.062-91.927-75.26h198.39c17.76 0 23.906-9.0104 24.635-18.542" fill="#211e1e"/>
  <path d="m1022.6 418.8c0-62.5-59.531-67.708-113.96-72.656-40.156-3.0208-77.344-2.5-77.344-34.635 0-31.146 43.698-43.698 72.812-43.698 22.604 0 64.792 2.0312 75.833 31.146 6.5104 19.062 41.198 9.5312 34.167-13.073-17.604-45.208-71.302-51.719-110-51.719-48.229 0-109.48 23.125-109.48 76.823 0 61.771 58.281 66.302 112.5 71.354 40.677 2.9688 78.854 4.4792 78.854 36.667 0 34.635-54.271 45.677-78.906 45.677-36.615 0-77.812-11.563-82.812-34.167-4.0626-22.604-34.323-16.25-35.781 0.68v2.448c0.107 1.094 0.26 2.24 0.625 3.386 10 50.26 76.302 60.833 117.97 60.833 41.302 0 115.52-15.521 115.52-79.062" fill="#211e1e"/>
  <path d="m1224 411.04c-14.583 34.687-50.26 53.75-85.885 53.75-45.677-2.031-79.844-33.177-79.844-77.344v-39.688c0-49.219 38.646-78.333 84.375-78.333 19.062 1.5106 37.136 7.5 51.719 19.063 27.083 22.604 37.656 52.76 37.135 85.417-0.468 13.021-3.4896 26.563-7.5 37.136m44.167-43.49c0-56.25-29.062-102.34-80.833-123.75l0.469 0.469c-15.521-6.4584-32.604-9.5313-48.177-9.5313-30.156 0-65.312 13.125-82.396 44.219v-23.646c0-11.042-5.5208-17.5-17.031-17.5-11.563 0-18.594 6.4584-18.594 17.5v311.93c0 23.073 36.667 23.073 36.667 0v-107.97c15.052 26.614 47.708 40.208 81.354 40.208 75.312 0 128.54-54.688 128.54-131.93" fill="#211e1e"/>
  <path d="m1525.2 476.98c0 10.521 7.5522 17.553 18.594 17.553 9.5313 0 18.073-7.032 18.073-17.553v-113.54c0-50.677 22.083-91.875 73.802-91.875 11.563 0 19.115-6.0416 19.115-17.083 0-11.563-7.552-17.604-19.115-17.604-28.594 0-58.698 9.0626-74.792 42.708v-25.104c0-24.115-35.677-22.083-35.677 0z" fill="#211e1e"/>
  <path d="m754.53 386.82c-2.5522 50.261-38.698 78.386-84.896 78.386-18.594-1.511-36.667-7.553-51.719-19.115-27.136-22.604-37.708-52.708-36.667-85.365 0.521-13.073 3.0208-26.615 7.5-37.188 14.114-35.104 50.26-54.219 85.885-53.698 45.208 1.9792 79.896 27.604 79.896 77.292zm-209.9-21.614c0 50.521 20.886 88.854 56.198 113.02 21.094 15.105 48.229 21.615 72.292 21.615 29.636 0 66.823-16.562 81.406-45.677v24.062c0 11.094 6.5104 18.125 18.021 18.125 11.094 0 18.646-7.031 18.646-18.125v-222.97c0-10.521-7.5521-18.073-18.646-18.073-11.51 0-18.021 7.552-18.021 18.073v19.062c-18.073-29.583-50.729-38.646-79.375-39.167-19.062-0.468-37.135 2.0314-53.75 9.5834l0.521-0.521c-47.865 18.438-77.292 64.01-77.292 120.99" fill="#211e1e"/>
  <path d="m545.16 190.26c-1.0414-9.0104-9.0626-16.562-18.073-16.562h-113.02c-25.104 0-25.104 33.177 0 33.177h96.406v175.73c0 47.761-46.198 83.386-94.896 83.386-42.188 0-78.854-26.615-81.875-72.292-1.9792-27.136-38.646-22.604-37.136 0.521 3.4896 60.209 55.208 105.42 119.01 105.42 66.302 0 130.05-49.219 129.58-117.03z" fill="#211e1e"/>
  <path d="m172.92 207.03h-72.083l49.375 76.354z" fill="#26abe8"/>
  <path d="m216.41 207.03-64.115 142.45-97.812-175.62h128.33l37.031-124.48 57.448 22.396-45.938 102.08h137.03c-5.4686-96.979-85.729-173.85-184.01-173.85-101.82 0-184.37 82.5-184.37 184.32s82.552 184.32 184.37 184.32c94.115 0 171.67-70.521 182.86-161.61z" fill="#26abe8"/>
  <path d="m1704.1 250.21h5.6771c2.7084 0 4.5833-0.416 5.5208-1.2494 0.989-0.781 1.5105-1.8229 1.5105-3.177 0-0.833-0.26-1.6147-0.729-2.2918-0.469-0.677-1.1454-1.1973-1.9792-1.5104-0.833-0.364-2.3959-0.521-4.6875-0.521h-5.3125zm-4.6355 16.25v-28.906h9.948c3.3334 0 5.8334 0.26 7.3438 0.781 1.5104 0.573 2.7082 1.5104 3.6458 2.8126 0.885 1.3541 1.3014 2.7604 1.3014 4.2708 0 2.0833-0.729 3.9062-2.2396 5.4688-1.5104 1.5625-3.4895 2.4478-5.9895 2.6562 1.0413 0.416 1.8228 0.937 2.4479 1.5104 1.1973 1.1454 2.6041 3.073 4.2708 5.7292l3.5417 5.6771h-5.7292l-2.5-4.5833c-2.0312-3.5938-3.6979-5.8334-4.8959-6.6667-0.833-0.729-2.1353-1.0413-3.75-1.0413h-2.7604v12.292zm11.771-37.24c-3.75 0-7.448 0.989-10.99 2.8645-3.5938 1.9271-6.4063 4.6876-8.3855 8.2813-2.0312 3.5938-3.0208 7.3438-3.0208 11.25 0 3.8542 0.989 7.552 2.9167 11.094 2.0312 3.5937 4.7916 6.302 8.3333 8.2812 3.5937 2.0313 7.2916 2.9688 11.146 2.9688 3.8541 0 7.6041-0.937 11.146-2.9688 3.5417-1.9792 6.3021-4.6875 8.2813-8.2812 1.9792-3.5418 2.9687-7.2396 2.9687-11.094 0-3.9062-0.989-7.6562-3.0208-11.25-2.0312-3.5937-4.7916-6.3542-8.3853-8.2813-3.5939-1.8749-7.2396-2.8645-10.99-2.8645m0-4.4792c4.479 0 8.9062 1.1986 13.177 3.4896 4.323 2.2917 7.6563 5.5729 10.052 9.9478 2.3959 4.271 3.5939 8.75 3.5939 13.438 0 4.6354-1.1987 9.0624-3.5417 13.333-2.3438 4.2708-5.6771 7.6041-9.8959 9.9478-4.2708 2.3438-8.6979 3.5418-13.385 3.5418-4.6355 0-9.0626-1.1987-13.386-3.5418-4.2188-2.3437-7.5521-5.677-9.8959-9.9478-2.3957-4.271-3.5937-8.698-3.5937-13.333 0-4.6876 1.1987-9.1666 3.6459-13.438 2.3958-4.3749 5.7292-7.6561 10.052-9.9478 4.2708-2.2916 8.6457-3.4896 13.177-3.4896" display="none" fill="#211e1e"/>
 </g>
</svg>
