<?xml version="1.0" encoding="utf-8"?>
<!-- Generator: Adobe Illustrator 26.3.1, SVG Export Plug-In . SVG Version: 6.00 Build 0)  -->
<svg version="1.1" id="Layer_1" xmlns="http://www.w3.org/2000/svg" xmlns:xlink="http://www.w3.org/1999/xlink" x="0px" y="0px"
	 viewBox="0 0 1920 1080" style="enable-background:new 0 0 1920 1080;" xml:space="preserve">
<style type="text/css">
	.st0{fill:#0F193C;}
	.st1{fill:#FFFFFF;}
</style>
<rect class="st0" width="1920" height="1080"/>
<g>
	<g>
		<path class="st1" d="M1115.7,421.27c2.94-7.2,11.82-11.3,19.18-8.62c5.55,2.16,9.95,7.74,9.81,13.84
			c0.02,13.56,0,27.12,0.01,40.68c13.45,0.02,26.91,0.02,40.36,0c3.44-0.17,7.06,0.56,9.7,2.9c2.28,1.78,3.57,4.43,4.59,7.08
			c20.76,51.17,41.46,102.36,62.21,153.52c19.87-49.48,39.72-98.98,59.58-148.47c1.41-3.47,2.59-7.3,5.57-9.8
			c5.99-5.3,16.1-5,21.67,0.8c3.93,3.76,5.41,9.95,3.3,15c-22.89,55.33-45.72,110.69-68.64,166.01
			c-4.42,10.68-17.33,16.21-28.28,13.1c-5.27-1.5-9.96-4.96-12.98-9.53c-1.71-2.59-2.73-5.54-3.92-8.38
			c-21.33-51.76-42.64-103.51-64-155.25c-9.72,0.01-19.45-0.01-29.17,0.01c0.02,40.75-0.05,81.51,0.03,122.26
			c0.02,9.08,3.88,19.73,13.35,22.67c0.02,9.26,0.02,18.52,0.01,27.78c-11.18,0.1-23.18-2.53-31.32-10.69
			c-5.94-5.81-9.41-13.74-10.89-21.82c-1.47-7.43-1.12-15.03-1.16-22.55c0-39.22,0.01-78.43,0-117.65c-7.2-0.02-14.4,0.02-21.6-0.01
			c-3.17,0.05-6.35-1.1-8.63-3.31c-5.45-4.93-6.11-14.52-0.83-19.81c2.45-2.59,6.01-3.92,9.55-3.85c7.17-0.02,14.34,0.01,21.5,0
			c0.01-12.53,0.02-25.07,0-37.6C1114.72,426.79,1114.56,423.89,1115.7,421.27z"/>
		<g>
			<path class="st1" d="M567.36,414.16c16.82,0,33.64-0.01,50.46,0.01c0.01,22.28-0.01,44.55,0.01,66.84
				c18.21-10.38,39.73-14.76,60.54-12.28c24.75,2.69,48.21,15.29,64.3,34.27c13.82,16.08,22.3,36.69,23.64,57.86
				c1.68,22.88-4.91,46.25-18.34,64.86c-12.05,16.93-29.54,29.94-49.26,36.52c-20.63,6.98-43.57,6.9-64.15-0.22
				c-22.48-7.66-41.91-23.72-53.77-44.27c-8.66-14.84-13.31-31.97-13.43-49.15C567.35,517.11,567.36,465.63,567.36,414.16z
				 M661.2,518.94c-12.52,1.5-24.31,8.06-32.24,17.87c-7.11,8.66-11.1,19.81-11.11,31.01c-0.11,11.08,3.68,22.13,10.55,30.82
				c6.76,8.63,16.45,14.93,27.1,17.51c11.01,2.72,22.95,1.51,33.16-3.42c10.94-5.22,19.81-14.6,24.39-25.82
				c4.83-11.66,4.94-25.18,0.3-36.92c-3.98-10.23-11.5-19.02-20.96-24.58C683.09,519.87,671.93,517.6,661.2,518.94z"/>
		</g>
		<path class="st1" d="M787.42,414.16c16.73,0.02,33.46,0.04,50.18,0.1c0.02,44.49,0.01,88.97,0.01,133.46
			c0.01,9.75-0.05,19.5,0.47,29.25c1.39,17.91,15.29,35.02,33.5,37.64c0.02,16.83,0.02,33.67,0,50.51
			c-18.52-1.13-35.97-9.34-50.44-20.65c-11.84-9.25-21.6-21.43-26.86-35.6c-5.9-15.5-6.68-32.34-6.84-48.75
			C787.42,511.47,787.42,462.81,787.42,414.16z"/>
		<path class="st1" d="M886.26,466.67c16.73,0.02,33.46,0.04,50.18,0.1c0.07,32.67-0.11,65.33,0.1,98
			c0.26,6.98-0.19,14.14,1.95,20.89c3.44,11.14,11.25,21.16,21.87,26.25c10.54,5.03,23.42,4.41,33.6-1.23
			c8.49-4.36,15.03-12.05,18.45-20.91c3.61-8.64,3.09-18.18,3.49-27.34c0.08-31.88,0.01-63.77,0.04-95.65
			c16.22-0.08,32.45-0.08,48.68-0.11c0,21.63,0,43.26,0,64.88c-0.19,17.62,0.69,35.31-1.37,52.85c-1,8.34-2.12,16.76-5.05,24.67
			c-5.01,13.56-14.18,25.26-25.15,34.55c-9.35,7.72-19.94,14.17-31.57,17.79c-13.46,4.02-27.87,4.72-41.7,2.39
			c-13.73-2.27-26.35-8.86-37.46-17.03c-12.18-9.02-22.42-20.96-28.23-35.04c-7.1-16.98-7.75-35.73-7.84-53.89
			C886.26,527.45,886.25,497.06,886.26,466.67z"/>
	</g>
</g>
</svg>
