<?xml version="1.0" encoding="UTF-8" standalone="no"?>
<svg
   xmlns:dc="http://purl.org/dc/elements/1.1/"
   xmlns:cc="http://creativecommons.org/ns#"
   xmlns:rdf="http://www.w3.org/1999/02/22-rdf-syntax-ns#"
   xmlns:svg="http://www.w3.org/2000/svg"
   xmlns="http://www.w3.org/2000/svg"
   xmlns:sodipodi="http://sodipodi.sourceforge.net/DTD/sodipodi-0.dtd"
   xmlns:inkscape="http://www.inkscape.org/namespaces/inkscape"
   width="800.98999"
   height="138.3"
   viewBox="0 0 800.99001 138.3"
   fill="none"
   version="1.1"
   id="svg937"
   sodipodi:docname="Ubisoft+ Logo.svg"
   inkscape:version="1.0.2 (e86c870879, 2021-01-15, custom)">
  <metadata
     id="metadata941">
    <rdf:RDF>
      <cc:Work
         rdf:about="">
        <dc:format>image/svg+xml</dc:format>
        <dc:type
           rdf:resource="http://purl.org/dc/dcmitype/StillImage" />
        <dc:title></dc:title>
      </cc:Work>
    </rdf:RDF>
  </metadata>
  <sodipodi:namedview
     pagecolor="#ffffff"
     bordercolor="#666666"
     borderopacity="1"
     objecttolerance="10"
     gridtolerance="10"
     guidetolerance="10"
     inkscape:pageopacity="0"
     inkscape:pageshadow="2"
     inkscape:window-width="1366"
     inkscape:window-height="705"
     id="namedview939"
     showgrid="false"
     inkscape:zoom="1.5771796"
     inkscape:cx="343.5521"
     inkscape:cy="69.563839"
     inkscape:window-x="-8"
     inkscape:window-y="-8"
     inkscape:window-maximized="1"
     inkscape:current-layer="svg937"
     inkscape:document-rotation="0" />
  <g
     id="g959"
     transform="matrix(6.266344,0,0,6.3924691,2.0606404,-1.1111265)">
    <path
       d="m 12.4418,12.3321 c 0,1.4888 -0.3473,2.6328 -1.042,3.4321 -0.6948,0.7992 -1.67369,1.2067 -2.9684,1.2067 -1.29471,0 -2.27364,-0.4075 -2.96836,-1.2067 C 4.76832,14.9649 4.42096,13.8209 4.42096,12.3321 V 0.5 H 0 v 12.1769 c 0,1.6298 0.331572,3.0716 0.978926,4.3567 0.647354,1.2851 1.610494,2.288 2.889414,3.0089 1.27892,0.7209 2.79467,1.0814 4.57885,1.0814 1.76841,0 3.29991,-0.3605 4.57881,-1.0814 1.279,-0.7209 2.2421,-1.7238 2.8894,-3.0089 0.6474,-1.2851 0.979,-2.7426 0.979,-4.3567 V 0.5 h -4.4526 z"
       fill="#ffffff"
       id="path914"
       style="fill:#000000" />
    <path
       d="m 29.5262,9.76194 c 0.8368,-0.34478 1.4999,-0.87761 1.9736,-1.61418 0.4737,-0.72089 0.7105,-1.64552 0.7105,-2.74254 0,-1.50447 -0.6,-2.69552 -1.7841,-3.5888 C 29.242,0.938806 27.6473,0.5 25.6578,0.5 h -6.8051 v 20.2948 h 7.0736 c 1.4683,0 2.7315,-0.2508 3.8209,-0.7679 1.0895,-0.5172 1.9263,-1.2224 2.5263,-2.147 0.6,-0.9247 0.8842,-1.959 0.8842,-3.1187 0.0158,-2.4134 -1.2,-4.0903 -3.6315,-4.99926 z m -6.2209,-5.3597 h 2.3367 c 0.6948,0 1.2632,0.18806 1.6737,0.56418 0.4263,0.37612 0.6316,0.90895 0.6316,1.58283 0,0.67388 -0.2053,1.20672 -0.6316,1.58284 -0.4263,0.37612 -0.9789,0.56418 -1.6737,0.56418 H 23.3053 Z M 27.963,16.2813 c -0.521,0.4389 -1.2473,0.6583 -2.2104,0.6583 h -2.4473 v -5.109 h 2.4473 c 0.9473,0 1.6894,0.2194 2.2104,0.6582 0.5211,0.4388 0.7737,1.0657 0.7737,1.8963 0,0.8306 -0.2684,1.4574 -0.7737,1.8962 z"
       fill="#ffffff"
       id="path916"
       style="fill:#000000" />
    <path
       d="m 39.1654,0.5 h -4.4367 v 20.2948 h 4.4367 z"
       fill="#ffffff"
       id="path918"
       style="fill:#000000" />
    <path
       d="M 49.8241,9.02537 C 48.261,8.47687 47.1873,7.99105 46.5715,7.56791 45.9558,7.12911 45.6558,6.62761 45.6558,6.04776 c 0,-0.51716 0.221,-0.9403 0.6631,-1.2694 0.4421,-0.32911 0.9947,-0.48582 1.6736,-0.48582 1.5158,0 2.6368,0.78358 3.3316,2.35074 l 3.5367,-2.4291 C 54.2924,2.99179 53.4398,2.06716 52.2714,1.4403 51.1188,0.813433 49.7451,0.5 48.1662,0.5 c -1.2789,0 -2.4315,0.250746 -3.442,0.73657 -1.0105,0.48582 -1.8,1.17537 -2.3684,2.03731 -0.5684,0.87761 -0.8526,1.84925 -0.8526,2.9306 0,1.56716 0.4737,2.80522 1.421,3.72985 0.9474,0.92467 2.3053,1.69257 4.0736,2.33507 1.4211,0.5015 2.4,0.9716 2.921,1.4261 0.5211,0.4388 0.7895,0.9717 0.7895,1.5985 0,0.6426 -0.2369,1.1441 -0.6947,1.5202 -0.4737,0.3761 -1.0737,0.5642 -1.8158,0.5642 -0.8526,0 -1.6578,-0.2665 -2.3999,-0.815 -0.7421,-0.5485 -1.2632,-1.2537 -1.5789,-2.147 l -3.5368,2.6172 c 0.5684,1.4261 1.4842,2.5388 2.7789,3.3067 1.2789,0.7679 2.8262,1.1597 4.6104,1.1597 1.3105,0 2.4947,-0.2507 3.5683,-0.7679 1.0737,-0.5172 1.9263,-1.2537 2.5579,-2.2411 0.6315,-0.9873 0.9473,-2.1626 0.9473,-3.5104 0,-1.5045 -0.4263,-2.7112 -1.2789,-3.6045 -0.8526,-0.9403 -2.2105,-1.70819 -4.042,-2.35073 z"
       fill="#ffffff"
       id="path920"
       style="fill:#000000" />
    <path
       d="M 72.2999,1.8791 C 70.721,0.954478 68.9211,0.5 66.9474,0.5 c -1.5947,0 -3.0789,0.266418 -4.4367,0.79925 -1.3579,0.53284 -2.4473,1.20672 -3.2684,2.03732 l 0.6947,0.68955 c -1.0578,0.87761 -1.8789,1.94328 -2.4789,3.22836 -0.5999,1.28507 -0.8999,2.75822 -0.8999,4.41942 0,1.7709 0.4421,3.4164 1.3105,4.9209 0.8842,1.5045 2.0999,2.6798 3.6788,3.5731 1.5789,0.8776 3.3789,1.3164 5.3999,1.3164 1.9894,0 3.7736,-0.4544 5.3683,-1.3791 1.5947,-0.9246 2.8263,-2.1783 3.7105,-3.7768 0.8841,-1.5985 1.3262,-3.3851 1.3262,-5.3441 0,-1.95893 -0.4421,-3.72982 -1.3262,-5.32833 -0.9,-1.59851 -2.1316,-2.85224 -3.7263,-3.77687 z m -0.1894,12.3806 c -0.4895,0.956 -1.1842,1.7082 -2.0684,2.241 -0.9,0.5486 -1.9263,0.815 -3.0947,0.815 -1.1842,0 -2.2263,-0.2664 -3.1262,-0.7836 -0.9,-0.5172 -1.5789,-1.2224 -2.0526,-2.1 -0.4737,-0.8776 -0.7105,-1.8493 -0.7105,-2.8836 0,-1.0186 0.1894,-1.88059 0.5526,-2.57014 0.3631,-0.68955 0.8684,-1.28508 1.4842,-1.81791 L 62.4001,6.4709 c 0.5053,-0.54851 1.1369,-0.97165 1.9105,-1.30075 0.7737,-0.3291 1.6579,-0.48582 2.6368,-0.48582 1.1684,0 2.1947,0.26642 3.0947,0.81492 0.9,0.54851 1.5947,1.28508 2.0684,2.24105 0.4894,0.95597 0.7263,2.03731 0.7263,3.2597 0,1.2224 -0.2369,2.3037 -0.7263,3.2597 z"
       fill="#ffffff"
       id="path922"
       style="fill:#000000" />
    <path
       d="m 79.3798,20.7948 h 4.4368 v -8.0866 h 8.684 V 9.35448 h -8.684 V 4.68433 H 93.369 V 0.5 H 79.3798 Z"
       fill="#ffffff"
       id="path924"
       style="fill:#000000" />
    <path
       d="m 95.2558,4.68433 h 5.7472 V 20.7948 h 4.437 V 4.68433 h 5.731 V 0.5 H 95.2558 Z"
       fill="#ffffff"
       id="path926"
       style="fill:#000000" />
    <path
       d="M 121.674,5.56194 V 0.5 h -3.442 v 5.06194 h -1.311 -3.805 v 3.41642 h 2.842 0.963 1.311 V 14.056 h 3.442 V 8.97836 h 4.247 l 1.437,-3.41642 z"
       fill="#428ee0"
       id="path928" />
  </g>
  <defs
     id="defs935">
    <clipPath
       id="clip0">
      <rect
         width="128"
         height="21"
         fill="#ffffff"
         transform="translate(0,0.5)"
         id="rect932"
         x="0"
         y="0" />
    </clipPath>
  </defs>
</svg>
