<?xml version="1.0" encoding="utf-8"?>
<!-- Generator: Adobe Illustrator 17.0.0, SVG Export Plug-In . SVG Version: 6.00 Build 0)  -->
<!DOCTYPE svg PUBLIC "-//W3C//DTD SVG 1.1//EN" "http://www.w3.org/Graphics/SVG/1.1/DTD/svg11.dtd">
<svg version="1.1" id="Layer_1" xmlns="http://www.w3.org/2000/svg" xmlns:xlink="http://www.w3.org/1999/xlink" x="0px" y="0px"
	 width="843.599px" height="555.39px" viewBox="0 0 843.599 555.39" enable-background="new 0 0 843.599 555.39"
	 xml:space="preserve">
<path d="M617.37,385.206c-0.356-0.8-0.96-1.186-1.844-1.28c-9.373-0.994-18.743-2.016-28.115-3.017
	c-10.009-1.07-20.02-2.113-30.027-3.204c-1.25-0.136-2.476-0.489-3.733-0.746c-0.986-2.223-1.048-4.409-0.915-6.944
	c0.805-0.06,1.55-0.23,2.27-0.154c20.019,2.126,40.036,4.266,60.05,6.434c3.32,0.36,6.624,0.861,9.957,1.292
	c1.529-0.006,3.036-0.006,4.544-0.006c-0.011-0.153-0.021-0.307-0.032-0.46c-1.519,0.158-3.038,0.316-4.556,0.473
	c-0.146-0.914-0.694-1.296-1.605-1.441c-7.889-1.254-15.769-2.566-23.658-3.821c-14.834-2.361-29.672-4.691-44.506-7.052
	c-1.088-0.173-2.153-0.494-3.264-0.755c-1.161-2.349-1.054-4.682-1.169-7.36c4.504,0.047,8.488,1.162,12.532,1.702
	c3.958,0.528,7.891,1.245,11.836,1.875c4.103,0.655,8.207,1.301,12.309,1.955c3.945,0.629,7.888,1.268,11.833,1.897
	c4.103,0.655,8.206,1.302,12.309,1.957c3.945,0.63,7.881,1.318,11.835,1.884c4.032,0.577,8.019,1.579,12.196,1.155
	c-28.546-6.127-57.092-12.253-85.563-18.364c-1.118-2.554-1.186-4.883-1.147-7.157c1.242-0.926,2.303-0.377,3.343-0.156
	c26.565,5.657,53.129,11.317,79.689,16.993c1.541,0.329,3.052,0.801,4.679,1.234c0.225,0.868,0.473,1.615,0.61,2.383
	c0.588,3.285,1.202,6.567,1.686,9.867c0.254,1.731,0.373,3.499,0.354,5.249c-0.048,4.376-2.405,7.665-6.58,8.971
	c-1.645,0.514-3.446,0.735-5.177,0.739c-20.627,0.048-41.255,0.031-61.882,0.026c-0.798,0-1.608,0.02-2.393-0.1
	c-3.503-0.538-6.326-2.17-8.112-5.319c-0.284-0.501-0.312-1.148-0.546-2.075c1.532-0.058,2.756-0.197,3.969-0.134
	c8.303,0.427,16.603,0.892,24.904,1.352c10.375,0.576,20.749,1.154,31.123,1.749c0.952,0.055,1.897,0.23,2.866,0.34
	c1.996,0.036,3.981,0.474,5.928-0.36C621.368,384.956,619.369,385.081,617.37,385.206z"/>
<path d="M226.048,385.186c0.47-0.091,0.937-0.239,1.41-0.266c18.034-1.024,36.069-2.047,54.105-3.038
	c2.336-0.128,4.692-0.347,7.352-0.096c-0.251,1.005-0.276,1.653-0.561,2.153c-1.789,3.138-4.592,4.816-8.103,5.329
	c-1.099,0.161-2.233,0.111-3.351,0.111c-20.146,0.006-40.293,0.023-60.439-0.027c-1.891-0.005-3.857-0.195-5.656-0.74
	c-4.184-1.266-6.501-4.571-6.621-8.947c-0.018-0.638-0.074-1.29,0.022-1.915c0.795-5.164,1.621-10.324,2.473-15.709
	c29.223-6.375,58.266-12.474,87.456-18.756c0.873,2.806,0.247,5.187-0.627,7.872c-28.493,6.345-57.12,12.088-85.553,18.769
	c9.309-0.825,18.488-2.532,27.705-3.967c9.473-1.474,18.943-2.968,28.41-4.482c9.302-1.487,18.598-3.01,28.045-4.541
	c1.045,2.531,0.289,4.787-0.258,7.045c-1.335,1.174-2.977,1.185-4.524,1.434c-19.561,3.146-39.124,6.278-58.687,9.412
	c-2.996,0.48-6.002,0.905-8.98,1.478c-0.446,0.086-0.763,0.848-1.153,1.293c-1.524-0.159-3.034-0.314-4.544-0.469
	c-0.013,0.157-0.025,0.314-0.038,0.472c1.522,0,3.044,0,4.566,0c3.31-0.438,6.612-0.945,9.93-1.302
	c13.341-1.437,26.688-2.815,40.03-4.239c6.671-0.712,13.336-1.479,20.006-2.205c0.605-0.066,1.223-0.009,2.088-0.009
	c0.497,2.475,0.2,4.732-0.727,7.138c-1.421,0.265-2.806,0.62-4.213,0.772c-13.023,1.407-26.05,2.775-39.074,4.164
	c-6.194,0.661-12.384,1.352-18.579,2.005c-0.885,0.093-1.487,0.482-1.868,1.267c-2.021-0.095-4.024-0.184-6.028-0.272
	c0,0.088,0,0.176,0,0.265C222.058,385.186,224.053,385.186,226.048,385.186z"/>
<path d="M14.531,477.983c1.04-0.221,1.795-0.49,2.559-0.52c1.393-0.056,2.474,0.49,2.956,1.927c0.355,1.06,0.768,2.101,1.146,3.154
	c6.055,16.843,12.092,33.692,18.187,50.52c0.622,1.718,0.921,3.634,2.271,5.107c1.587-1.115,1.658-2.859,2.173-4.303
	c5.905-16.556,11.734-33.14,17.589-49.715c0.586-1.658,1.151-3.326,1.835-4.944c0.611-1.446,1.757-1.938,3.549-1.732
	c1.253,0.144,2.048,0.795,2.303,2.058c0.823,4.072,1.685,8.136,2.468,12.216c3.762,19.618,7.505,39.24,11.251,58.862
	c0.788,4.129,0.214,4.807-3.976,4.739c-0.479-0.008-0.963,0.008-1.437-0.046c-1.555-0.178-2.339-0.763-2.642-2.312
	c-0.707-3.607-1.321-7.232-1.945-10.854c-2.331-13.545-4.646-27.092-6.987-40.636c-0.16-0.928-0.485-1.827-0.839-3.132
	c-1.237,1.044-1.473,2.227-1.854,3.319c-5.736,16.447-11.472,32.894-17.209,49.34c-0.421,1.207-0.789,2.438-1.294,3.609
	c-0.567,1.316-1.668,1.822-3.09,1.816c-1.441-0.006-2.483-0.588-3.027-1.909c-0.486-1.181-0.871-2.404-1.296-3.609
	c-5.691-16.124-11.377-32.25-17.077-48.371c-0.465-1.315-1.021-2.598-1.791-4.545c-0.524,1.338-0.929,2.015-1.052,2.74
	c-2.647,15.599-5.26,31.203-7.887,46.805c-0.318,1.891-0.586,3.799-1.068,5.65c-0.175,0.674-0.851,1.651-1.392,1.717
	c-1.866,0.228-3.786,0.239-5.656,0.046c-0.492-0.051-1.103-1.089-1.25-1.763c-0.159-0.728,0.127-1.568,0.276-2.347
	c4.377-22.917,8.757-45.834,13.154-68.747C13.716,480.872,14.102,479.649,14.531,477.983z"/>
<path d="M408.449,478.808c1.161-0.098,2.263-0.268,3.364-0.271c8.631-0.022,17.263-0.017,25.894-0.007
	c2.728,0.003,5.417,0.26,8.018,1.195c8.317,2.991,13.807,8.704,15.583,17.354c1.817,8.846-0.947,16.457-7.843,22.355
	c-2.161,1.849-4.691,3.266-7.306,5.054c0.365,0.918,0.667,1.953,1.165,2.883c3.842,7.185,7.727,14.348,11.584,21.525
	c0.603,1.123,1.221,2.251,1.675,3.437c0.527,1.373-0.23,2.719-1.648,2.848c-1.743,0.159-3.506,0.12-5.26,0.122
	c-1.236,0.001-2.098-0.642-2.654-1.726c-0.583-1.137-1.185-2.265-1.758-3.408c-3.438-6.854-6.863-13.715-10.309-20.565
	c-0.708-1.409-1.482-2.784-2.132-4.001c-4.947-0.641-16.542-0.594-20.628,0.096c-0.126,1.121-0.375,2.339-0.382,3.559
	c-0.039,7.033-0.064,14.066-0.006,21.099c0.036,4.455-0.403,5.188-5.311,4.968c-2.139-0.096-2.872-0.8-3.066-2.872
	c-0.089-0.952-0.067-1.916-0.067-2.875c-0.003-21.738-0.01-43.477,0.013-65.215C407.377,482.646,407.03,480.838,408.449,478.808z
	 M416.781,517.682c1.039,0.101,2.116,0.287,3.194,0.296c4.305,0.035,8.61,0.019,12.915,0.015c1.754-0.002,3.515,0.079,5.26-0.053
	c7.338-0.557,13.415-5.941,14.691-12.937c1.274-6.979-2.283-13.799-8.848-16.931c-2.035-0.971-4.172-1.575-6.448-1.572
	c-6.536,0.008-13.073,0.015-19.609,0.057c-0.433,0.003-0.865,0.291-1.407,0.487c-0.11,0.625-0.31,1.233-0.311,1.841
	c-0.006,9.088,0.009,18.175,0.048,27.263C416.269,516.583,416.551,517.019,416.781,517.682z"/>
<path d="M621.664,273.133c0.788,3.309,1.578,6.487,1.475,10.22c-0.914-0.447-1.499-0.651-1.993-0.987
	c-53.687-36.491-107.367-72.993-161.186-109.588c0.757-2.727,2.228-4.724,3.409-6.864
	C467.854,168.154,606.902,262.379,621.664,273.133z"/>
<path d="M379.757,165.709c1.735,2.269,2.772,4.366,3.751,6.693c-0.688,0.61-1.219,1.197-1.855,1.629
	c-53.446,36.313-106.899,72.614-160.366,108.896c-0.194,0.132-0.587-0.029-1.123-0.071c0.151-2.846,0.624-5.651,1.336-8.399
	c0.217-0.838,0.921-1.62,1.57-2.257c0.675-0.662,1.55-1.121,2.344-1.661c50.128-34.086,100.257-68.172,150.388-102.254
	C376.988,167.479,378.205,166.718,379.757,165.709z"/>
<path d="M159.34,536.355c-6.394-0.596-35.233-0.442-39.027,0.197c-0.687,1.436-1.471,2.988-2.179,4.574
	c-1.758,3.94-3.495,7.89-5.213,11.848c-0.719,1.657-1.9,2.352-3.734,2.404c-5.081,0.142-5.879-0.862-3.83-5.413
	c10.367-23.022,20.767-46.029,31.16-69.039c0.328-0.727,0.641-1.474,1.071-2.139c1.132-1.749,3.726-1.81,4.83-0.08
	c0.597,0.935,1.005,1.995,1.463,3.014c10.083,22.448,20.162,44.899,30.24,67.35c0.196,0.437,0.38,0.88,0.566,1.322
	c1.724,4.097,1.052,4.954-3.518,4.997c-2.216,0.021-3.563-0.748-4.433-2.825c-1.666-3.978-3.507-7.884-5.294-11.811
	C160.787,539.311,160.078,537.893,159.34,536.355z M139.59,493.093c-2.003,4.48-3.756,8.397-5.506,12.315
	c-1.691,3.787-3.461,7.541-5.045,11.372c-1.616,3.908-3.885,7.575-4.859,11.801c4.55,0.742,27.685,0.686,31.434-0.063
	c-0.188-0.76-0.284-1.543-0.571-2.25C149.861,513.483,142.284,497.081,139.59,493.093z"/>
<path d="M692.323,536.373c-5.613-0.569-35.177-0.455-39.122,0.157c-1.348,2.987-2.793,6.167-4.219,9.354
	c-1.045,2.334-2.101,4.663-3.086,7.023c-0.698,1.672-1.845,2.41-3.685,2.467c-5.177,0.16-6.025-0.884-3.795-5.789
	c10.319-22.695,20.547-45.431,30.814-68.15c0.394-0.872,0.773-1.763,1.277-2.572c1.234-1.979,3.891-1.899,5.069,0.161
	c0.553,0.967,0.959,2.02,1.417,3.04c10.021,22.303,20.042,44.606,30.052,66.914c0.522,1.163,1.031,2.344,1.403,3.56
	c0.427,1.398-0.387,2.542-1.867,2.727c-0.789,0.099-1.599,0.019-2.394,0.093c-2.185,0.201-3.608-0.622-4.482-2.733
	c-1.589-3.837-3.353-7.603-5.067-11.388C693.92,539.65,693.142,538.089,692.323,536.373z M673.208,493.117
	c-0.815,0.96-1.207,1.259-1.384,1.654c-4.82,10.776-9.623,21.561-14.401,32.355c-0.178,0.402-0.087,0.923-0.137,1.601
	c0.81,0.127,1.565,0.346,2.321,0.348c8.94,0.021,17.88,0.02,26.82-0.016c0.701-0.003,1.401-0.305,2.469-0.553
	C683.753,516.596,678.659,505.118,673.208,493.117z"/>
<path d="M223.305,265.547c-0.227-3.47,0.728-6.544,1.304-9.651c0.128-0.689,0.808-1.344,1.371-1.868
	c0.816-0.759,1.753-1.388,2.643-2.067c45.271-34.53,90.541-69.062,135.821-103.582c1.375-1.049,2.631-2.323,4.68-2.953
	c1.163,2.135,2.29,4.205,3.354,6.159c-0.851,1.997-2.531,2.76-3.897,3.804c-27.198,20.778-54.415,41.529-81.63,62.284
	c-19.839,15.13-39.675,30.264-59.528,45.376C226.208,263.974,225.142,265.23,223.305,265.547z"/>
<path d="M470.651,152.194c1.402-2.567,2.534-4.639,3.642-6.667c2.145,0.443,3.35,1.811,4.723,2.857
	c32.315,24.617,64.613,49.255,96.913,73.89c12.971,9.893,25.94,19.788,38.909,29.684c0.89,0.679,1.826,1.309,2.642,2.068
	c0.564,0.524,1.242,1.174,1.379,1.865c0.617,3.102,1.423,6.196,1.37,9.419c-0.503,0-0.898,0.126-1.089-0.018
	C569.679,227.853,520.457,190.1,470.651,152.194z"/>
<path d="M340.018,520.164c0,9.39,0,18.146,0,26.756c1.092,1.359,2.462,0.984,3.683,0.988c9.277,0.032,18.554,0.018,27.83,0.019
	c1.12,0,2.246,0.081,3.358-0.01c4.153-0.338,4.504,2.224,3.749,5.736c-0.13,0.603-1.02,1.294-1.687,1.474
	c-1.053,0.285-2.214,0.219-3.329,0.22c-12.316,0.011-24.632,0.007-36.947,0.007c-0.48,0-0.96,0.011-1.439-0.009
	c-3.244-0.131-3.765-0.671-3.906-4.052c-0.02-0.479-0.009-0.96-0.009-1.439c0-21.912-0.008-43.825,0.014-65.737
	c0.002-1.716-0.381-3.548,1.21-5.283c0.999-0.089,2.25-0.294,3.501-0.296c12.636-0.024,25.271-0.015,37.907-0.015
	c0.32,0,0.64-0.005,0.96,0.006c3.661,0.13,5.072,2.244,3.667,5.707c-0.244,0.602-1.101,1.204-1.767,1.334
	c-1.238,0.241-2.544,0.167-3.822,0.168c-9.277,0.01-18.554-0.005-27.83,0.015c-1.562,0.003-3.124,0.136-4.918,0.22
	c-0.736,3.057-0.319,5.925-0.388,8.748c-0.071,2.877-0.049,5.758-0.006,8.637c0.043,2.845-0.217,5.71,0.25,8.808
	c1.423,0.135,2.648,0.348,3.874,0.353c7.677,0.031,15.355,0.016,23.032,0.017c0.96,0,1.921-0.027,2.879,0.017
	c2.962,0.136,3.561,0.797,3.541,3.83c-0.02,2.927-0.592,3.565-3.743,3.586c-8.157,0.053-16.314,0.013-24.471,0.03
	C343.636,520.002,342.063,520.096,340.018,520.164z"/>
<path d="M616.966,245.936c-1.577,0.026-2.247-0.985-3.072-1.668c-33.648-27.805-128.832-109.183-131.964-112.83
	c1.009-2.239,2.037-4.523,3.819-6.643c1.062,0.818,1.954,1.446,2.781,2.149c41.397,35.199,82.777,70.419,124.218,105.567
	c1.991,1.689,3.081,3.529,3.353,6.044c0.188,1.743,0.605,3.46,0.85,5.199C617.05,244.466,616.966,245.203,616.966,245.936z"/>
<path d="M357.74,124.775c1.752,2.245,2.896,4.462,3.929,7.14c-44.858,38.172-89.71,76.318-135.157,114.958
	c-0.059-4.488,0.734-7.889,1.575-11.236c0.273-1.085,1.475-2.027,2.421-2.839c7.518-6.453,15.076-12.86,22.624-19.28
	c33.599-28.576,67.198-57.153,100.802-85.722C355.115,126.793,356.362,125.866,357.74,124.775z"/>
<path d="M547.11,494.339c-1.236-0.891-2.5-1.829-3.791-2.728c-4.806-3.345-10.034-5.621-15.924-6.144
	c-14.054-1.248-24.869,7.127-29.774,17.011c-8.866,17.863,0.417,39.577,19.311,44.744c8.426,2.304,16.494,1.202,23.909-3.631
	c2.128-1.387,4.219-2.829,6.073-4.076c0.564,0.102,0.744,0.087,0.868,0.164c6.617,4.062,4.798,5.697,0.547,8.94
	c-21.197,16.171-54.189,6.489-61.603-21.234c-6.329-23.669,8.857-44.53,29.272-48.988c12.428-2.714,23.822-0.304,33.836,7.783
	c0.497,0.401,1,0.805,1.437,1.268c0.859,0.911,1.053,2.171,0.318,3.054C550.382,491.952,549.234,493.518,547.11,494.339z"/>
<path d="M230.256,224.986c-0.216-4.539,0.88-7.923,1.419-11.369c0.133-0.853,0.872-1.68,1.496-2.371
	c0.96-1.065,2.058-2.007,3.104-2.994c35.556-33.573,71.112-67.147,106.675-100.714c1.144-1.08,2.359-2.085,3.711-3.274
	c1.889,2.092,2.77,4.436,3.8,6.551c-0.477,1.907-1.942,2.741-3.07,3.808c-21.363,20.207-42.744,40.393-64.124,60.582
	c-16.151,15.251-32.302,30.502-48.462,45.744C233.558,222.125,232.242,223.228,230.256,224.986z"/>
<path d="M492.556,111.412c1.429-2.65,2.552-4.733,3.735-6.927c2.073,0.364,3.031,1.964,4.235,3.096
	c15.952,14.999,31.863,30.041,47.783,45.073c19.871,18.763,39.716,37.554,59.645,56.256c2.557,2.4,4.484,4.834,4.558,8.535
	c0.044,2.192,0.617,4.373,1.06,7.27c-1.36-0.862-2.201-1.228-2.832-1.819c-6.417-6.008-12.8-12.052-19.191-18.087
	c-31.607-29.847-63.212-59.694-94.821-89.539C495.458,114.069,494.163,112.896,492.556,111.412z"/>
<path d="M839.698,484.855c-0.243,0.696-0.344,1.175-0.564,1.59c-2.518,4.75-3.54,4.457-7.365,2.143
	c-2.743-1.66-5.738-2.755-8.887-3.476c-3.567-0.816-7.028-0.41-10.366,0.816c-8.74,3.209-10.916,13.258-4.197,19.737
	c1.921,1.852,4.303,3.319,6.676,4.585c2.95,1.574,6.116,2.742,9.177,4.113c4.089,1.832,8.087,3.828,11.632,6.622
	c3.213,2.533,5.678,5.6,6.89,9.568c2.542,8.321-0.345,16.424-7.695,21.375c-5.231,3.524-11.08,4.906-17.316,4.44
	c-7.192-0.538-13.667-3.087-19.391-7.49c-0.756-0.582-1.475-1.232-2.117-1.937c-0.708-0.777-0.792-1.751-0.327-2.675
	c0.354-0.706,0.827-1.364,1.321-1.985c2.036-2.563,2.865-2.693,5.471-0.615c2.891,2.305,5.929,4.34,9.385,5.696
	c4.608,1.809,9.317,2.361,14.029,0.587c1.753-0.66,3.5-1.648,4.899-2.884c4.575-4.043,5.135-10.322,1.273-15.046
	c-1.488-1.82-3.384-3.443-5.391-4.67c-3.123-1.909-6.48-3.44-9.774-5.058c-2.436-1.197-4.987-2.166-7.378-3.442
	c-2.106-1.124-4.135-2.428-6.068-3.831c-10.109-7.338-10.5-25.5,2.912-32.615c2.087-1.107,4.41-1.977,6.726-2.41
	c8.141-1.522,15.896-0.173,23.179,3.781c0.833,0.453,1.617,1.022,2.348,1.628C839.123,483.687,839.289,484.187,839.698,484.855z"/>
<path d="M192.779,545.699c0.439-0.954,0.621-1.585,0.98-2.092c2.767-3.912,3.721-4.473,7.453-1.219
	c3.279,2.859,7.109,4.874,11.374,5.933c4.657,1.156,9.219,0.992,13.473-1.421c4.249-2.41,6.49-6.03,6.139-11.045
	c-0.187-2.674-1.241-5.04-3.19-6.777c-2.128-1.897-4.426-3.691-6.896-5.097c-3.182-1.81-6.59-3.229-9.934-4.743
	c-3.937-1.783-7.838-3.624-11.209-6.38c-10.614-8.676-9.367-25.213,2.489-32.097c2.042-1.185,4.341-2.146,6.643-2.625
	c8.634-1.795,16.828-0.365,24.505,3.978c0.553,0.313,1.087,0.678,1.569,1.091c0.805,0.69,1.008,1.629,0.742,2.609
	c-0.164,0.603-0.497,1.173-0.819,1.719c-1.804,3.057-2.99,3.294-5.77,1.619c-3.023-1.821-6.228-3.196-9.699-3.997
	c-3.731-0.862-7.335-0.477-10.813,0.885c-8.43,3.3-10.454,13.119-4.089,19.568c2.161,2.189,4.764,3.755,7.538,5.023
	c2.904,1.327,5.862,2.534,8.77,3.852c4.08,1.849,8.074,3.859,11.583,6.696c4.587,3.708,7.232,8.382,7.437,14.402
	c0.219,6.413-2.274,11.49-7.222,15.411c-4.686,3.714-10.149,5.391-16.045,5.427c-8.635,0.053-16.268-2.884-22.915-8.369
	C194.157,547.461,193.619,546.656,192.779,545.699z"/>
<path d="M726.008,545.448c0.357-1.969,1.71-3.343,3.113-4.652c0.776-0.724,1.764-0.788,2.651-0.194
	c0.927,0.62,1.771,1.364,2.656,2.049c3.452,2.674,7.207,4.786,11.485,5.775c4.671,1.08,9.257,0.818,13.456-1.717
	c4.207-2.54,6.241-6.275,5.724-11.277c-0.259-2.502-1.285-4.681-3.09-6.332c-1.874-1.715-3.879-3.372-6.069-4.633
	c-3.038-1.749-6.335-3.042-9.462-4.644c-3.835-1.965-7.758-3.816-11.37-6.141c-4.334-2.79-6.822-6.923-7.974-12.065
	c-1.773-7.917,2.016-17.923,11.446-22.002c6.278-2.716,12.759-2.741,19.295-1.322c3.769,0.818,7.339,2.26,10.583,4.387
	c1.63,1.069,1.918,2.384,1.021,4.139c-0.362,0.708-0.808,1.383-1.292,2.015c-1.134,1.479-2.063,1.709-3.737,0.915
	c-2.452-1.163-4.838-2.478-7.337-3.529c-4.446-1.869-9.019-2.013-13.604-0.489c-5.845,1.943-9.101,7.007-8.393,12.932
	c0.339,2.838,1.623,5.242,3.741,7.042c1.934,1.643,4.068,3.103,6.28,4.353c2.218,1.253,4.658,2.106,6.966,3.204
	c3.462,1.647,6.985,3.197,10.309,5.093c2.198,1.254,4.222,2.899,6.098,4.615c7.122,6.512,8.349,20.156-1.536,27.899
	c-5.553,4.35-11.963,6.009-18.905,5.486c-7.026-0.529-13.378-3.011-18.991-7.296C727.814,548.099,726.412,547.224,726.008,545.448z"
	/>
<path d="M503.556,90.907c1.385-2.563,2.514-4.651,3.616-6.69c1.997-0.099,2.67,1.383,3.597,2.347
	c13.303,13.83,26.572,27.694,39.847,41.551c17.922,18.707,35.812,37.444,53.805,56.083c2.104,2.179,3.448,4.477,3.813,7.45
	c0.347,2.83,0.832,5.642,1.256,8.462c-1.71,0.409-2.159-0.862-2.85-1.581c-15.399-16.03-30.77-32.087-46.147-48.139
	c-17.7-18.476-35.402-36.951-53.101-55.428C506.186,93.703,504.995,92.43,503.556,90.907z"/>
<path d="M335.859,83.925c1.667,2.098,2.681,4.394,3.7,6.489c-0.063,0.379-0.07,0.543-0.12,0.693
	c-0.05,0.148-0.116,0.308-0.222,0.419c-34.373,35.934-68.75,71.864-103.132,107.789c-0.328,0.343-0.711,0.639-1.095,0.921
	c-0.106,0.078-0.306,0.027-0.463,0.035c-0.148-0.24-0.453-0.504-0.421-0.716c0.561-3.629,1.192-7.248,1.745-10.878
	c0.239-1.569,1.372-2.487,2.351-3.513c7.067-7.401,14.153-14.785,21.233-22.175c24.116-25.171,48.227-50.345,72.359-75.5
	C332.972,86.262,333.953,84.76,335.859,83.925z"/>
<path d="M494.253,276.871c-0.973,1.927-1.661,3.353-2.412,4.745c-0.294,0.544-0.728,1.013-1.042,1.44
	c-2.04,0.297-3.561-0.768-5.156-1.39c-19.634-7.657-39.243-15.379-58.864-23.068c-5.745-2.251-4.192-2.325-9.94-0.071
	c-19.62,7.693-39.233,15.405-58.853,23.099c-1.616,0.634-3.264,1.188-4.877,1.772c-2.009-1.905-2.623-4.215-3.892-6.452
	c1.472-0.69,2.576-1.282,3.733-1.738c21.839-8.593,43.694-17.147,65.516-25.786c2.209-0.875,4.115-0.998,6.393-0.093
	c21.96,8.722,43.965,17.33,65.953,25.981C491.837,275.715,492.823,276.219,494.253,276.871z"/>
<path d="M604.999,173.846c-3.717-3.328-86.934-98.923-90.24-103.471c0.526-1.099,1.094-2.379,1.743-3.616
	c0.59-1.124,1.268-2.201,2.01-3.473c1.816,0.738,2.707,2.289,3.802,3.544c12.931,14.83,25.831,29.687,38.738,44.538
	c12.907,14.851,25.773,29.737,38.76,44.518c2.104,2.394,3.388,4.93,3.753,8.055C603.913,166.93,604.42,169.902,604.999,173.846z"/>
<path d="M238.766,173.089c0.126-4.556,0.994-8.785,2.013-12.948c0.35-1.432,1.625-2.702,2.655-3.893
	c10.359-11.975,20.754-23.92,31.142-35.871c15.424-17.745,30.848-35.491,46.28-53.229c1.142-1.312,2.345-2.57,3.74-4.094
	c1.906,2.334,2.934,4.79,4.042,7.122c-0.076,0.247-0.115,0.402-0.172,0.552c-0.056,0.149-0.105,0.311-0.201,0.432
	c-0.696,0.874-1.379,1.761-2.111,2.604c-28.539,32.835-57.083,65.666-85.63,98.494c-0.208,0.239-0.461,0.445-0.719,0.63
	C239.696,172.965,239.52,172.95,238.766,173.089z"/>
<path d="M485.657,293.438c-1.262,2.395-2.287,4.34-3.458,6.563c-1.654-0.476-3.162-0.857-4.635-1.341
	c-17.147-5.63-34.31-11.211-51.411-16.978c-3.041-1.026-5.686-1.072-8.752-0.036c-17.249,5.831-34.567,11.455-51.863,17.147
	c-1.207,0.397-2.422,0.77-3.768,1.198c-1.904-1.698-2.59-3.999-3.795-6.379c0.884-0.453,1.638-0.971,2.472-1.247
	c19.558-6.478,39.13-12.915,58.683-19.41c1.752-0.582,3.348-0.659,5.12-0.069c19.701,6.553,39.419,13.052,59.13,19.575
	C483.968,292.655,484.524,292.948,485.657,293.438z"/>
<path d="M525.667,50.381c0.977-2.847,2.308-5.146,3.949-7.625c1.708,0.743,2.452,2.197,3.39,3.382
	c13.391,16.906,26.76,33.831,40.136,50.749c7.233,9.148,14.436,18.321,21.73,27.42c1.75,2.184,2.953,4.426,3.208,7.289
	c0.254,2.851,0.989,5.658,1.438,8.495c0.135,0.855,0.021,1.75,0.021,2.904c-0.645-0.451-1.103-0.639-1.371-0.977
	C573.982,111.469,549.811,80.907,525.667,50.381z"/>
<path d="M313.54,42.441c2.055,2.727,3.107,5.177,4.406,7.746c-24.18,30.577-48.246,61.011-72.323,91.437
	c-0.368,0.465-0.865,0.828-1.706,1.617c0-1.428-0.115-2.319,0.021-3.169c0.455-2.836,1.2-5.64,1.454-8.49
	c0.255-2.863,1.462-5.094,3.206-7.284c11.345-14.244,22.617-28.546,33.91-42.831c9.213-11.653,18.419-23.312,27.638-34.961
	C311.129,45.265,312.174,44.073,313.54,42.441z"/>
<path d="M579.971,479.271c2.084-1.059,3.863-0.749,5.594-0.663c1.475,0.073,2.223,0.892,2.358,2.501
	c0.12,1.428,0.092,2.871,0.092,4.308c0.005,18.845,0.003,37.69,0.003,56.535c0,1.744,0,3.488,0,5.478
	c1.347,0.193,2.405,0.47,3.465,0.476c7.666,0.039,15.331,0.022,22.997,0.024c1.118,0,2.237-0.023,3.354,0.01
	c3.185,0.095,3.97,0.912,3.88,3.985c-0.073,2.522-0.846,3.36-3.538,3.401c-4.79,0.073-9.582,0.03-14.373,0.031
	c-6.388,0.002-12.776,0.017-19.164-0.012c-1.566-0.007-3.23,0.32-4.702-1.054c-0.107-0.449-0.379-1.061-0.38-1.674
	c-0.021-23.795-0.02-47.591,0.001-71.386C579.559,480.62,579.808,480.012,579.971,479.271z"/>
<path d="M278.523,485.743c-2.731,0-4.957,0.001-7.183,0c-3.355-0.002-6.711,0.042-10.064-0.025c-2.99-0.06-3.597-0.759-3.552-3.75
	c0.041-2.677,0.646-3.343,3.417-3.416c2.874-0.076,5.751-0.029,8.626-0.03c10.863-0.002,21.727-0.01,32.59,0.01
	c1.726,0.003,3.499-0.244,5.387,0.601c0.186,0.707,0.521,1.441,0.551,2.188c0.158,3.853-0.335,4.368-4.29,4.41
	c-4.153,0.045-8.307-0.008-12.461,0.026c-1.242,0.01-2.483,0.172-3.736,0.265c-0.973,1.833-0.637,3.619-0.639,5.328
	c-0.026,19.011-0.016,38.022-0.018,57.032c0,1.278,0.035,2.559-0.036,3.833c-0.133,2.387-0.798,2.992-3.275,3.123
	c-0.159,0.009-0.319,0.006-0.479,0.009c-3.753,0.079-4.432-0.51-4.439-4.389c-0.032-18.372-0.016-36.744-0.018-55.115
	c0-2.237,0.026-4.474-0.019-6.709C278.867,488.211,278.695,487.29,278.523,485.743z"/>
<path d="M369.882,316.531c-1.231-2.33-2.259-4.276-3.404-6.446c0.954-0.458,1.611-0.907,2.336-1.103
	c16.798-4.557,33.61-9.066,50.401-13.651c1.768-0.483,3.372-0.483,5.14,0.001c16.789,4.592,33.598,9.111,50.396,13.666
	c0.593,0.161,1.145,0.478,1.943,0.819c-0.07,1.381-0.829,2.413-1.389,3.496c-0.506,0.978-1.078,1.922-1.728,3.07
	c-1.009-0.187-1.929-0.293-2.813-0.53c-14.961-4.011-29.934-7.984-44.863-12.109c-2.894-0.8-5.54-0.77-8.424,0.026
	c-14.777,4.08-29.595,8.008-44.401,11.985C372.161,316.001,371.236,316.203,369.882,316.531z"/>
<path d="M624.515,289.453c0.502,3.394,1.609,6.277,1.193,9.479c-0.583-0.128-1.096-0.117-1.469-0.34
	c-29.885-17.941-59.758-35.901-89.457-53.754c-0.93-3.265-1.432-6.218-1.254-9.262c0.487-0.029,0.869-0.176,1.085-0.047
	C564.516,253.447,594.406,271.385,624.515,289.453z"/>
<path d="M310.273,235.159c-0.461,3.435-0.839,6.252-1.155,8.602c-0.352,0.573-0.425,0.714-0.519,0.84
	c-0.095,0.127-0.191,0.273-0.322,0.352c-29.244,17.647-58.491,35.288-87.741,52.926c-0.546,0.329-1.119,0.615-1.688,0.903
	c-0.131,0.066-0.3,0.072-0.453,0.078c-0.158,0.006-0.318-0.022-0.619-0.046c-0.476-3.065,0.679-5.932,1.086-8.795
	C222.245,287.315,305.736,237.109,310.273,235.159z"/>
<path d="M306.791,257.287c0.538,2.978-0.614,5.696-0.873,8.386c-3.45,2.433-85.839,46.016-90.512,47.876
	c-0.77-1.37,0.109-2.705,0.074-4.014c-0.106-3.936,2.137-5.799,5.399-7.506c27.042-14.151,53.996-28.469,80.994-42.704
	C303.393,258.524,304.794,257.346,306.791,257.287z"/>
<path d="M628.495,313.566c-0.847-0.158-1.364-0.136-1.76-0.344c-29.669-15.643-59.329-31.304-89.032-46.986
	c-0.511-2.969-1.315-5.718-1.193-8.707c1.541-0.497,2.522,0.458,3.553,1c13.295,6.987,26.574,14.003,39.854,21.018
	c14.269,7.538,28.534,15.082,42.8,22.624c0.424,0.224,0.825,0.51,1.271,0.668c2.581,0.913,3.725,2.729,3.792,5.454
	C627.823,309.994,628.227,311.687,628.495,313.566z"/>
<path d="M303.819,276.989c0.648,3.26-0.46,5.829-0.729,8.796c-7.35,3.723-14.975,6.961-22.472,10.463
	c-7.38,3.447-14.806,6.795-22.213,10.186c-7.552,3.457-15.105,6.912-22.656,10.371c-7.388,3.385-14.774,6.775-22.276,10.215
	c-0.957-1.618-0.428-3.006-0.23-4.338c0.21-1.415,0.588-2.806,0.969-4.556c14.7-6.969,29.691-13.692,44.617-20.551
	C273.742,290.721,288.64,283.827,303.819,276.989z"/>
<path d="M302.676,21.609c1.65,3.089,2.919,5.465,4.122,7.718c-1.635,3.021-51.905,73.325-55.823,78.08
	c-0.273,0.331-0.736,0.505-1.36,0.916c0-0.873-0.083-1.489,0.014-2.076c0.445-2.676,1.182-5.327,1.367-8.017
	c0.332-4.829,2.407-8.724,5.214-12.572c14.493-19.868,28.811-39.863,43.2-59.808C300.329,24.575,301.327,23.356,302.676,21.609z"/>
<path d="M539.423,277.373c0.756,0.118,1.266,0.09,1.676,0.278c29.331,13.421,58.654,26.858,88.068,40.336
	c0.706,2.868,1.449,5.598,1.41,8.339c-0.356,0.23-0.462,0.336-0.587,0.369c-0.15,0.04-0.339,0.07-0.474,0.014
	c-1.326-0.552-2.658-1.094-3.963-1.692c-28.301-12.984-56.598-25.974-84.916-38.972C539.917,283.108,539.22,280.37,539.423,277.373z
	"/>
<path d="M593.908,108.222c-0.559-0.234-0.955-0.27-1.109-0.482c-18.729-25.879-37.44-51.772-56.205-77.736
	c0.897-2.884,2.526-5.23,3.983-7.861c1.781,0.583,2.356,2.165,3.229,3.373c13.938,19.298,27.845,38.617,41.76,57.932
	c1.027,1.426,1.971,2.923,3.102,4.261c2.031,2.404,3.057,5.152,3.455,8.249c0.407,3.165,1.054,6.298,1.559,9.451
	C593.822,106.29,593.829,107.194,593.908,108.222z"/>
<path d="M543.212,304.19c-0.933-2.92-1.134-5.413-1.086-8.333c5.413,1.328,10.092,3.682,14.96,5.478
	c4.942,1.823,9.817,3.83,14.721,5.755c5.053,1.984,10.106,3.967,15.159,5.95c4.905,1.925,9.81,3.849,14.714,5.773
	c4.905,1.924,9.812,3.841,14.713,5.775c4.892,1.93,9.778,3.877,14.803,5.871c0.362,1.424,0.786,2.784,1.038,4.175
	c0.223,1.231,0.254,2.497,0.399,4.059c-2.035,0.317-3.545-0.712-5.071-1.308c-20.523-8.016-41.025-16.084-61.533-24.14
	c-6.092-2.393-12.185-4.786-18.274-7.189C546.278,305.472,544.817,304.85,543.212,304.19z"/>
<path d="M301.381,295.459c-0.033,3.464-0.113,6.119-1.196,8.557c-6.059,3.005-85.41,33.941-88.971,34.66
	c-0.647-2.755,0.27-5.284,1.01-8.206C241.591,318.877,271.114,307.307,301.381,295.459z"/>
<path d="M545.352,320.899c-0.387-2.758-0.716-5.1-1.08-7.692c1.907-0.517,3.316,0.415,4.719,0.875
	c17.762,5.829,35.504,11.721,53.256,17.584c10.166,3.357,20.34,6.69,30.611,10.067c1.199,2.5,1.604,5.104,1.554,8.061
	c-1.805,0.495-3.222-0.44-4.623-0.898c-16.554-5.41-33.086-10.887-49.622-16.352c-10.166-3.36-20.33-6.724-30.491-10.096
	C548.325,322,546.993,321.489,545.352,320.899z"/>
<path d="M299.206,312.905c-0.376,2.819-0.687,5.157-1.027,7.704c-0.958,0.458-1.901,1.04-2.924,1.378
	c-27.914,9.222-55.835,18.419-83.758,27.613c-0.593,0.195-1.216,0.301-2.095,0.514c-0.816-2.88,0.282-5.364,0.683-7.762
	C213.921,340.525,293.52,314.193,299.206,312.905z"/>
<path d="M547.647,336.357c-0.215-1.161-0.46-2.24-0.605-3.333c-0.164-1.232-0.239-2.475-0.358-3.778
	c0.781-0.124,1.264-0.349,1.659-0.243c28.796,7.721,57.584,15.469,86.47,23.241c0.787,2.701,1.69,5.2,1.15,8.299
	c-28.694-7.742-57.151-15.416-85.602-23.11C549.456,337.19,548.607,336.744,547.647,336.357z"/>
<path d="M207.453,360.547c-0.486-3.068,0.528-5.31,0.897-7.909c1.285-0.446,2.592-0.99,3.947-1.357
	c26.369-7.133,52.744-14.248,79.12-21.358c1.527-0.411,3.071-0.755,4.716-1.157c1.164,2.631-0.143,4.886,0.003,6.913
	c-1.405,1.615-3.054,1.72-4.569,2.13c-23.593,6.384-47.187,12.768-70.78,19.149C216.475,358.124,212.16,359.28,207.453,360.547z"/>
<path d="M468.327,326.304c-0.447,1.038-0.717,1.781-1.079,2.477c-0.658,1.267-1.37,2.506-2.155,3.929
	c-0.954-0.063-1.905-0.01-2.803-0.201c-12.181-2.59-24.363-5.178-36.525-7.858c-2.718-0.599-5.323-0.603-8.041-0.005
	c-12.162,2.678-24.345,5.262-36.524,7.866c-0.767,0.164-1.56,0.209-2.489,0.329c-1.704-1.797-2.377-4.1-3.718-6.386
	c1.329-0.469,2.324-0.943,3.373-1.17c13.106-2.845,26.226-5.629,39.328-8.493c2.712-0.593,5.343-0.573,8.047,0.017
	c12.947,2.825,25.909,5.582,38.861,8.389C465.809,325.458,466.976,325.897,468.327,326.304z"/>
<path d="M520.023,227.048c-0.659,2.251-1.867,4.266-3.266,6.454c-0.961-0.414-1.857-0.685-2.635-1.152
	c-20.945-12.581-41.878-25.182-62.809-37.784c-0.676-0.407-1.32-0.869-2.132-1.406c0.515-2.61,1.834-4.688,3.316-6.673
	C456.066,187.955,516.305,224.142,520.023,227.048z"/>
<path d="M326.794,233.899c-1.366-2.573-2.4-4.521-3.566-6.718c0.841-0.669,1.495-1.319,2.262-1.782
	c20.924-12.617,41.858-25.217,62.8-37.805c0.799-0.48,1.688-0.808,2.6-1.238c1.564,2.045,2.608,4.146,3.576,6.496
	c-0.755,0.584-1.323,1.121-1.977,1.515C370.755,207.456,349.014,220.532,326.794,233.899z"/>
<path d="M413.063,227.291c0.608,1.051,1.108,1.854,1.546,2.69c0.589,1.125,1.131,2.274,1.781,3.592
	c-0.875,0.541-1.629,1.103-2.46,1.508c-22.685,11.052-65.491,30.37-69.869,31.517c-1.422-1.836-2.463-3.913-3.22-6.115
	C344.142,258.306,407.802,229.025,413.063,227.291z"/>
<path d="M437.968,213.142c1.135-2.148,2.162-4.095,3.319-6.284c1.066,0.363,1.975,0.545,2.761,0.96
	c21.768,11.473,43.525,22.969,65.278,34.472c0.68,0.359,1.293,0.845,2.105,1.384c-0.874,2.393-2.077,4.401-3.235,6.389
	C504.627,248.883,443.342,216.688,437.968,213.142z"/>
<path d="M401.789,206.685c1.565,2.288,2.901,4.202,3.366,6.531c-3.214,2.352-65.078,35.094-69.631,36.858
	c-0.344-0.444-0.794-0.888-1.081-1.421c-0.822-1.529-1.578-3.095-2.276-4.479c0.147-0.4,0.18-0.564,0.263-0.697
	c0.082-0.133,0.193-0.274,0.326-0.345c21.724-11.529,43.451-23.054,65.182-34.571C399.06,207.966,400.221,207.446,401.789,206.685z"
	/>
<path d="M427.007,233.489c1.167-2.159,2.216-4.1,3.37-6.234c1.067,0.335,1.976,0.516,2.796,0.892
	c22.196,10.161,44.385,20.339,66.568,30.529c0.992,0.456,1.921,1.052,2.977,1.637c-0.917,2.385-1.858,4.524-3.376,6.3
	C495.62,265.559,431.448,236.211,427.007,233.489z"/>
<path d="M387.144,349.185c-1.442-2.029-2.613-4.027-3.285-6.511c3.131-1.388,6.391-1.34,9.491-1.898
	c7.853-1.412,15.758-2.534,23.631-3.836c3.348-0.554,6.648-0.501,9.994,0.058c9.445,1.577,18.908,3.051,28.359,4.593
	c1.387,0.226,2.749,0.604,4.322,0.956c-0.731,2.608-1.887,4.614-3.34,6.65c-1.169-0.088-2.28-0.091-3.363-0.266
	c-8.824-1.42-17.648-2.843-26.462-4.328c-3.35-0.565-6.652-0.489-9.994,0.077c-8.812,1.492-17.637,2.91-26.462,4.33
	C389.11,349.16,388.154,349.129,387.144,349.185z"/>
<path d="M255.906,69.113c1.177-6.889,2.133-12.696,3.197-18.482c0.165-0.898,0.748-1.756,1.267-2.547
	c9.641-14.675,19.3-29.338,28.967-43.996c0.336-0.51,0.802-0.935,1.376-1.594c2.997,1.343,3.898,4.057,5.017,6.483
	C293.906,12.928,259.363,65.373,255.906,69.113z"/>
<path d="M587.407,68.298c-0.637-0.161-1.084-0.136-1.209-0.325c-12.885-19.412-25.746-38.84-38.62-58.286
	c0.975-2.979,2.076-5.533,5.023-7.196c0.646,0.718,1.355,1.33,1.852,2.083c9.5,14.396,18.98,28.804,28.442,43.225
	c0.605,0.923,1.295,1.916,1.49,2.961C585.462,56.546,586.399,62.358,587.407,68.298z"/>
<path d="M392.12,358.886c1.857-0.351,3.084-0.672,4.331-0.805c7.787-0.833,15.577-1.635,23.37-2.417
	c1.104-0.111,2.236-0.171,3.335-0.061c8.111,0.811,16.217,1.661,24.322,2.53c1.09,0.117,2.161,0.409,3.165,0.606
	c0.62,1.648-0.466,2.6-0.958,3.686c-0.456,1.007-1.103,1.928-1.673,2.898c-2.318,0.525-4.52,0.001-6.723-0.232
	c-4.45-0.471-8.915-0.847-13.338-1.505c-5.452-0.81-10.824-0.174-16.219,0.426c-5.23,0.582-10.464,1.134-15.875,1.718
	c-0.755-1.182-1.473-2.197-2.074-3.277C393.25,361.494,392.847,360.462,392.12,358.886z"/>
<path d="M404.079,382.069c-1.214-2.314-2.234-4.256-3.461-6.593c1.405-0.366,2.383-0.753,3.392-0.865
	c11.245-1.248,31.82-0.866,38.14,0.667c-0.441,2.773-0.441,2.773-2.9,6.462c-5.767,0.496-11.618-0.757-17.488-0.666
	C416.025,381.163,410.295,381.7,404.079,382.069z"/>
<path d="M277.539,0.305c-1.315,3.685-10.435,18.938-13.325,22.312c-0.112-0.507-0.327-0.922-0.268-1.294
	c0.649-4.099,1.264-8.206,2.039-12.282c0.994-5.225,4.525-8.44,9.773-9.031C276.32-0.053,276.918,0.195,277.539,0.305z"/>
<path d="M579.396,22.573c-0.392-0.199-0.781-0.264-0.916-0.484c-4.004-6.543-7.989-13.098-11.956-19.663
	c-0.316-0.522-0.481-1.136-0.773-1.846c0.551-0.24,0.951-0.573,1.335-0.557c5.243,0.226,9.141,3.347,10.257,8.43
	c0.684,3.117,1.063,6.302,1.547,9.461C579.123,19.435,579.838,20.922,579.396,22.573z"/>
<path d="M409.611,391.857c0.38-0.345,0.601-0.722,0.824-0.723c7.335-0.043,14.671-0.059,22.007-0.039
	c0.393,0.001,0.785,0.352,1.259,0.579c-0.04,1.571-1.181,2.276-2.083,3.091c-4.154,3.756-15.437,3.842-19.835-0.037
	C410.854,393.909,409.818,393.134,409.611,391.857z"/>
<path d="M617.37,385.206c1.999-0.125,3.997-0.25,5.996-0.375c-1.947,0.833-3.932,0.395-5.928,0.36
	C617.417,385.2,617.37,385.206,617.37,385.206z"/>
<path d="M624.967,377.596c1.519-0.158,3.038-0.316,4.556-0.473c0.011,0.153,0.021,0.307,0.032,0.46c-1.508,0-3.016,0-4.544,0.006
	C624.991,377.594,624.967,377.596,624.967,377.596z"/>
<path d="M226.048,385.186c-1.995,0-3.99,0-5.985,0c0-0.088,0-0.176,0-0.265c2.004,0.088,4.008,0.176,6.028,0.272
	C226.107,385.2,226.048,385.186,226.048,385.186z"/>
<path d="M218.498,377.602c-1.522,0-3.044,0-4.566,0c0.013-0.157,0.025-0.314,0.038-0.472c1.51,0.155,3.02,0.31,4.544,0.469
	C218.527,377.603,218.498,377.602,218.498,377.602z"/>
</svg>
