<?xml version="1.0" encoding="UTF-8" standalone="no"?>
<!-- Created with Inkscape (http://www.inkscape.org/) -->

<svg
   xmlns:dc="http://purl.org/dc/elements/1.1/"
   xmlns:cc="http://creativecommons.org/ns#"
   xmlns:rdf="http://www.w3.org/1999/02/22-rdf-syntax-ns#"
   xmlns:svg="http://www.w3.org/2000/svg"
   xmlns="http://www.w3.org/2000/svg"
   xmlns:xlink="http://www.w3.org/1999/xlink"
   xmlns:sodipodi="http://sodipodi.sourceforge.net/DTD/sodipodi-0.dtd"
   xmlns:inkscape="http://www.inkscape.org/namespaces/inkscape"
   id="svg4554"
   version="1.1"
   inkscape:version="0.47 r22583"
   width="1000"
   height="250"
   sodipodi:docname="Ojan.PNG">
  <metadata
     id="metadata4560">
    <rdf:RDF>
      <cc:Work
         rdf:about="">
        <dc:format>image/svg+xml</dc:format>
        <dc:type
           rdf:resource="http://purl.org/dc/dcmitype/StillImage" />
        <dc:title></dc:title>
      </cc:Work>
    </rdf:RDF>
  </metadata>
  <defs
     id="defs4558">
    <inkscape:perspective
       sodipodi:type="inkscape:persp3d"
       inkscape:vp_x="0 : 0.5 : 1"
       inkscape:vp_y="0 : 1000 : 0"
       inkscape:vp_z="1 : 0.5 : 1"
       inkscape:persp3d-origin="0.5 : 0.33333333 : 1"
       id="perspective4562" />
    <inkscape:perspective
       id="perspective4574"
       inkscape:persp3d-origin="0.5 : 0.33333333 : 1"
       inkscape:vp_z="1 : 0.5 : 1"
       inkscape:vp_y="0 : 1000 : 0"
       inkscape:vp_x="0 : 0.5 : 1"
       sodipodi:type="inkscape:persp3d" />
    <linearGradient
       y2="617.4986"
       x2="442.75006"
       y1="792.78632"
       x1="441.50525"
       gradientTransform="matrix(1.2212173,0,0,1.2212173,2.9437487,-751.97825)"
       gradientUnits="userSpaceOnUse"
       id="linearGradient4531"
       xlink:href="#linearGradient4486"
       inkscape:collect="always" />
    <linearGradient
       id="linearGradient4486">
      <stop
         style="stop-color:#5c5c5c;stop-opacity:1;"
         offset="0"
         id="stop4488" />
      <stop
         style="stop-color:#e7e7e7;stop-opacity:1;"
         offset="1"
         id="stop4490" />
    </linearGradient>
    <linearGradient
       y2="617.4986"
       x2="442.75006"
       y1="813.15918"
       x1="441.50525"
       gradientTransform="matrix(1.2212173,0,0,1.2212173,2.3886721,-727.15464)"
       gradientUnits="userSpaceOnUse"
       id="linearGradient4584"
       xlink:href="#linearGradient4486"
       inkscape:collect="always" />
  </defs>
  <sodipodi:namedview
     pagecolor="#ffffff"
     bordercolor="#666666"
     borderopacity="1"
     objecttolerance="10"
     gridtolerance="10"
     guidetolerance="10"
     inkscape:pageopacity="0"
     inkscape:pageshadow="2"
     inkscape:window-width="1280"
     inkscape:window-height="744"
     id="namedview4556"
     showgrid="false"
     inkscape:zoom="0.38183766"
     inkscape:cx="654.73969"
     inkscape:cy="229.75656"
     inkscape:window-x="-4"
     inkscape:window-y="-4"
     inkscape:window-maximized="1"
     inkscape:current-layer="svg4554" />
  <path
     style="fill:url(#linearGradient4584);fill-opacity:1"
     d="m 853.39967,237.8264 c -4.65257,-1.65097 -9.42094,-3.3202 -10.59636,-3.7094 -1.93244,-0.63984 -2.13713,-2.86273 -2.13713,-23.20709 l 0,-22.49948 10.07505,0.3547 10.07503,0.35468 2.56698,10.08445 c 1.41183,5.54645 3.55502,11.17622 4.76264,12.51063 5.19375,5.73902 16.56357,5.38802 24.69386,-0.76235 4.58399,-3.46767 11.41031,-12.94942 11.65425,-16.18773 0.15815,-2.09952 -2.04642,-7.63773 -10.02513,-25.18448 -1.83248,-4.03001 -10.66216,-23.64945 -19.62147,-43.59872 -8.95933,-19.9493 -16.7169,-36.007397 -17.23907,-35.684678 -0.52218,0.322719 -0.83831,13.072788 -0.70255,28.333518 l 0.24685,27.74676 11.29625,1.08327 11.29626,1.08327 0,8.29886 c 0,6.84274 -0.37498,8.41256 -2.13713,8.94674 -2.34211,0.71 -68.7061,15.39255 -69.57314,15.39255 -0.29478,0 -0.15342,-3.57206 0.31412,-7.93791 0.46754,-4.36586 0.50283,-7.93792 0.0784,-7.93792 -0.4244,0 -3.64833,1.90761 -7.16426,4.23913 -10.12088,6.71146 -19.34542,9.49006 -32.0657,9.65875 -10.30681,0.13668 -11.56604,-0.12995 -19.49602,-4.12814 -13.65718,-6.88578 -19.7878,-18.18774 -18.6426,-34.3682 1.72045,-24.30826 21.78713,-38.39994 67.03309,-47.073482 l 11.13365,-2.134297 -0.6404,-10.264734 c -0.73421,-11.768615 -2.95,-15.949965 -9.32809,-17.602688 -9.21656,-2.388249 -18.51184,5.479346 -29.2258,24.736954 l -5.77509,10.380347 -9.11717,0 -9.11716,0 -0.34661,-13.128087 c -0.33268,-12.599616 -1.04676,-14.924313 -3.56367,-11.601563 -0.63598,0.839587 -12.38115,26.11692 -26.10041,56.17187 l -24.94409,54.64531 -11.06884,0.003 -11.06884,0.003 -5.22514,-14.95992 c -11.18943,-32.03508 -16.42867,-46.09998 -17.17286,-46.09998 -0.42651,0 -7.59904,13.7387 -15.93895,30.53044 l -15.16347,30.53044 -11.18497,0 -11.18499,0 -2.21877,-8.55459 c -1.22032,-4.70502 -2.53574,-9.06745 -2.92313,-9.69426 -0.40447,-0.65444 -14.212,1.86338 -32.43058,5.91379 -17.44943,3.87939 -33.56897,7.41508 -35.82121,7.85709 l -4.09499,0.80367 0.48093,-7.93259 c 0.26451,-4.36292 0.26868,-7.93259 0.01,-7.93259 -0.25943,0 -1.9304,1.02862 -3.71326,2.28582 -8.59304,6.05945 -18.23002,9.70908 -31.02425,11.74921 -4.37992,0.69841 -4.57956,0.93689 -4.57956,5.47024 0,3.46263 -0.55138,4.84638 -2.04604,5.13484 -1.12534,0.21716 -41.24233,0.25025 -89.14887,0.0736 l -87.10335,-0.32129 0,-7.11673 0,-7.11672 -16.79173,3.44662 c -9.23546,1.89563 -17.75995,3.45671 -18.94331,3.46906 -2.20544,0.023 -2.22693,-1.09491 -0.26371,-13.71623 0.28731,-1.84708 0.10918,-3.35835 -0.39586,-3.35835 -0.50503,0 -3.79383,2.16067 -7.30842,4.80149 -9.23037,6.93557 -18.32214,10.02509 -31.70714,10.77461 -10.05123,0.56282 -11.29626,0.88761 -11.29626,2.94689 0,1.2729 -0.79304,2.61868 -1.76229,2.99063 -0.96926,0.37193 -11.09173,0.10087 -22.49435,-0.60241 -41.5315,-2.56093 -45.71621,-5.53202 -91.148573,-64.71353 -12.807907,-16.68395 -12.822781,-16.66581 -12.822781,15.63256 0,24.4679 0.184831,26.83602 2.13713,27.38034 1.175422,0.32771 6.533513,1.57856 11.906869,2.77964 5.373355,1.20108 10.157475,2.74895 10.631395,3.43969 0.71328,1.03963 0.67256,6.72721 -0.10759,15.02601 -0.11236,1.19501 -11.40987,1.52653 -52.021969,1.52653 l -51.8784708,0 -0.7099547,-2.82868 c -0.390472,-1.55577 -0.5383248,-5.49921 -0.3285685,-8.7632 l 0.3813862,-5.93455 6.7166948,-1.49322 c 3.694182,-0.82127 9.881345,-2.13849 13.749258,-2.92713 L 31.020185,163.90731 30.704316,98.355636 30.388449,32.803975 16.649754,29.829101 2.91106,26.854228 l 0,-8.931996 0,-8.9319951 57.091912,0.0037 c 60.920318,0.0037 73.750458,0.820048 87.398028,5.5611311 14.27345,4.958508 24.30241,14.656586 27.69787,26.784043 1.85818,6.636705 0.78451,6.521997 28.70244,3.066685 10.74671,-1.330077 21.05073,-2.42375 22.89783,-2.430382 l 3.35834,-0.01222 0,51.858773 0,51.858783 2.64187,1.41389 c 6.76867,3.62248 22.89177,-4.42508 26.54748,-13.25071 0.9368,-2.26167 1.28026,-12.83112 1.05859,-32.57702 l -0.32811,-29.2292 -12.21218,-2.56778 -12.21217,-2.567794 0,-8.459543 0,-8.459555 32.97287,-3.939305 c 18.13507,-2.166611 34.75889,-3.971093 36.94182,-4.009953 l 3.96895,-0.07059 0,12.822783 c 0,7.052529 0.2917,12.822781 0.64819,12.822781 0.3565,0 13.80351,-3.297286 29.88225,-7.327304 16.07874,-4.030017 29.52575,-7.327303 29.88225,-7.327303 0.35649,0 0.64819,4.072808 0.64819,9.050697 l 0,9.050686 7.97943,-5.350788 c 11.14729,-7.475083 21.54953,-10.541536 35.98439,-10.607774 9.42396,-0.04323 12.79971,0.46427 17.98493,2.703946 7.30655,3.155955 15.1689,11.031903 17.52938,17.559737 0.88707,2.453157 2.03279,4.460276 2.54604,4.460276 0.51324,0 1.08978,-5.612128 1.28119,-12.471388 l 0.34802,-12.471462 15.26521,-5.195437 c 18.81175,-6.402489 33.03271,-8.945112 49.92458,-8.926232 13.92944,0.01551 23.24893,1.87894 29.87314,5.972913 4.00235,2.4736 5.6119,2.561113 47.10122,2.561113 l 42.95728,0 -0.35881,8.853825 -0.3588,8.853826 -13.93562,2.741132 c -7.66459,1.507617 -14.13925,2.944757 -14.38814,3.193642 -0.24889,0.248883 1.2084,6.434276 3.23843,13.745302 2.03002,7.311036 4.86271,17.826559 6.29487,23.367839 1.43216,5.54127 2.94861,10.07299 3.36989,10.07047 0.42127,-0.002 1.81453,-2.61288 3.09612,-5.80079 4.99942,-12.43593 22.89457,-56.112717 24.78454,-60.491733 l 1.99639,-4.625618 9.7705,0.351357 9.77051,0.351356 2.15651,6.716696 c 13.06363,40.688139 21.07989,64.684302 21.47625,64.287932 0.96284,-0.96283 17.50476,-47.567807 17.04638,-48.02619 -0.25932,-0.259314 -6.58884,-1.615183 -14.06562,-3.013037 l -13.59415,-2.541573 0,-8.984948 0,-8.984948 39.99487,-0.409425 c 39.4328,-0.40366 40.16649,-0.457309 52.20704,-3.817353 16.29716,-4.5479 42.69153,-5.817001 53.80253,-2.586942 7.15905,2.081186 13.6935,5.78675 15.56223,8.825029 0.78415,1.274902 15.65572,1.587803 75.46367,1.587803 l 74.48706,0 -0.35879,8.810448 -0.35881,8.81046 -9.68961,2.772016 c -5.32923,1.524605 -10.09586,3.192775 -10.59246,3.70703 -0.90645,0.938689 -34.55333,83.44217 -41.98019,102.93712 -13.51679,35.48053 -27.32811,53.66232 -43.98364,57.90184 -0.67167,0.17096 -2.74195,0.93483 -4.60062,1.69749 -6.07182,2.49141 -22.70729,1.57792 -32.12519,-1.76406 z m -455.05129,-67.74756 7.56443,-2.55456 0,-36.60469 c 0,-22.89716 -0.47341,-37.489271 -1.26417,-38.966858 -1.70692,-3.189405 -13.21752,-3.228141 -20.10713,-0.06765 -5.58372,2.561417 -11.38784,7.993101 -12.96635,12.134338 -0.5927,1.55496 -1.07765,16.48433 -1.07765,33.17639 l 0,30.34916 7.022,2.4478 c 9.07328,3.16284 11.68607,3.17363 20.82887,0.0861 z m -76.69957,-49.34721 0,-29.919833 -6.10608,0 -6.10608,0 0,29.228103 0,29.22812 3.35835,0.50875 c 1.84708,0.2798 4.59483,0.59108 6.10608,0.69172 l 2.74773,0.18298 0,-29.91984 z m 186.08138,24.41314 c 5.36787,-3.51716 8.31075,-10.76135 9.02543,-22.21709 0.34775,-5.57367 0.29256,-10.13396 -0.12262,-10.13396 -2.86727,0 -17.76024,6.75131 -21.59794,9.79082 -8.80419,6.97305 -10.77299,20.32674 -3.56033,24.14853 3.81829,2.02321 11.95729,1.22797 16.25546,-1.5883 z m 74.03792,1.69204 c 0,-0.75472 -3.29729,-12.27193 -7.32731,-25.59379 -4.03002,-13.32184 -7.3273,-24.519614 -7.3273,-24.883941 0,-0.364325 -0.5607,-0.662412 -1.246,-0.662412 -0.81774,0 -1.13254,8.709293 -0.91591,25.340263 l 0.33008,25.34028 4.88487,0.74261 c 8.16165,1.24076 11.60157,1.15685 11.60157,-0.28301 z m 218.40837,-1.96591 c 5.27228,-3.93633 7.92464,-10.74433 8.50675,-21.83489 l 0.52975,-10.09307 -5.94182,1.78821 c -9.33861,2.81051 -18.69154,9.03166 -21.34095,14.19505 -4.25373,8.28997 -2.70131,15.87639 3.78119,18.4781 3.17241,1.27322 11.26484,-0.1441 14.46508,-2.5334 z M 180.65546,72.812935 c -0.32517,-0.847329 -1.86576,-1.540615 -3.42355,-1.540615 -2.13307,0 -4.10552,1.936472 -7.98904,7.843293 -4.95038,7.529537 -12.26271,13.988703 -20.7016,18.286228 -2.18293,1.111661 -3.96897,2.571006 -3.96897,3.242979 0,1.05334 14.44063,19.45092 31.04427,39.55086 l 4.98165,6.03063 0.3242,-35.93637 c 0.17832,-19.765019 0.0582,-36.629664 -0.26696,-37.477005 z m 758.09698,31.365125 c 5.96794,-18.162386 8.55477,-27.664153 7.66725,-28.162776 -0.73668,-0.41387 -5.35857,-1.718106 -10.27084,-2.898291 -8.55692,-2.055821 -9.389,-2.052902 -19.84478,0.06973 -6.00236,1.218506 -10.91337,2.611427 -10.91337,3.095382 0,0.483944 1.97361,5.462371 4.38582,11.063167 2.41222,5.600796 6.76272,15.953508 9.66779,23.006038 8.29522,20.13802 9.25984,22.27868 9.79703,21.74149 0.27745,-0.27744 4.55744,-12.83907 9.5111,-27.91471 z m -466.30408,-1.72432 c 4.69026,-1.86928 16.50553,-5.191607 26.25617,-7.382948 l 17.72845,-3.984257 -0.30819,-8.38058 c -0.45866,-12.472719 -1.53729,-15.357039 -6.69814,-17.911374 -9.72321,-4.812463 -19.34678,2.3421 -31.29968,23.269478 l -6.45197,11.296262 -9.06735,0 -9.06736,0 0,5.291949 c 0,2.91056 0.33515,5.62709 0.74477,6.03671 0.40962,0.40962 2.7452,-0.51103 5.19017,-2.04589 2.44498,-1.53487 8.28288,-4.32007 12.97313,-6.18935 z M 101.21909,85.112034 C 118.0555,79.559598 125.01033,67.440372 121.38417,49.973179 118.42192,35.704171 110.66101,31.264105 89.922833,31.973926 l -6.411391,0.21944 0,28.253999 0,28.253986 5.800783,-0.787795 c 3.19043,-0.433301 8.54852,-1.693975 11.906865,-2.801522 z"
     id="path4460-5" />
  <path
     style="fill:#000000"
     d="m 863.22112,233.99374 c -3.02251,-0.52137 -7.83106,-1.89027 -10.68565,-3.04201 l -5.19017,-2.09406 0,-16.35383 0,-16.35383 3.54184,0 c 3.26722,0 3.65869,0.49714 5.04874,6.41139 1.93337,8.22585 3.72972,11.66649 8.41861,16.1246 3.21104,3.05299 4.99153,3.68338 11.5898,4.10354 10.09917,0.64306 15.09182,-1.10925 22.73196,-7.97839 6.1694,-5.54682 13.35999,-16.27338 13.38211,-19.96272 0.01,-1.67329 -11.94147,-28.98257 -45.39284,-103.723134 -8.81418,-19.693558 -9.12538,-20.185281 -13.73581,-21.703096 -2.59452,-0.854155 -4.77502,-1.403703 -4.84555,-1.221216 -0.0706,0.182485 0.14652,19.276523 0.48235,42.431216 l 0.61061,42.09946 4.88487,0.80094 c 2.68668,0.44051 8.04477,1.18165 11.90687,1.64696 4.69351,0.56549 7.022,1.39703 7.022,2.50768 0,0.91391 -0.96171,1.9524 -2.13713,2.30777 -4.1417,1.25212 -52.06875,11.73065 -53.65406,11.73065 -1.21452,0 -1.60603,-2.82818 -1.60603,-11.60156 0,-6.38087 -0.33035,-11.60157 -0.73411,-11.60157 -0.40376,0 -4.46294,3.45232 -9.02039,7.67182 -14.35662,13.29204 -31.12168,18.91492 -46.63052,15.63958 -13.81344,-2.91731 -22.60124,-14.7681 -21.55652,-29.07006 1.62188,-22.20309 17.66023,-32.76001 63.71591,-41.93976 l 14.47295,-2.884739 -0.45486,-13.48208 c -0.65094,-19.294342 -5.00659,-26.819862 -16.408,-28.349119 -12.3249,-1.653113 -23.05896,6.275823 -34.1795,25.247385 -5.18134,8.839331 -6.57629,10.398642 -9.39645,10.50358 l -3.31181,0.123234 0,-14.472537 c 0,-16.406273 0.39751,-15.929424 -10.17361,-12.204503 l -5.89935,2.078731 -18.86121,41.485128 c -10.37367,22.81685 -19.86221,43.68336 -21.08566,46.37003 -1.22345,2.68669 -4.03861,8.86909 -6.25596,13.7387 l -4.03152,8.85383 -5.88232,0 c -4.37022,0 -6.1643,-0.54937 -6.97923,-2.13713 -0.6033,-1.17543 -6.51656,-17.66185 -13.14058,-36.63653 -6.62402,-18.97467 -12.38021,-34.4994 -12.79153,-34.4994 -0.41132,0 -8.80408,16.48644 -18.65058,36.63653 l -17.90275,36.63653 -6.01139,0 -6.01141,0 -1.86954,-5.80078 c -1.95536,-6.06699 -14.57435,-48.2006 -17.28189,-57.70254 -3.4102,-11.96788 -13.98359,-46.777696 -14.29614,-47.065805 -0.67702,-0.624103 -9.97829,-2.924218 -10.34444,-2.558073 -0.2089,0.208926 0.17234,3.291547 0.84725,6.850285 0.6749,3.558737 1.22709,23.368079 1.22709,44.020773 l 0,37.55036 7.02201,0.78702 c 14.53311,1.62888 16.33136,2.08819 15.94252,4.07211 -0.35745,1.82374 -5.12279,3.09864 -44.33583,11.86153 -13.08442,2.92396 -12.27458,3.5918 -11.78898,-9.72159 0.23274,-6.38138 0.0422,-11.60251 -0.42337,-11.60251 -0.46562,0 -4.43735,3.2903 -8.82608,7.31179 -17.78301,16.29488 -39.44362,21.34383 -55.07315,12.83718 -3.58318,-1.95021 -7.11241,-5.12776 -8.88106,-7.99611 -1.61426,-2.61792 -3.34716,-4.77464 -3.85092,-4.7927 -0.50375,-0.0181 -0.91591,3.98059 -0.91591,8.8859 l 0,8.91878 11.60156,2.79686 c 9.62001,2.31916 11.60156,3.19456 11.60156,5.12523 0,2.23946 -1.42238,2.32837 -37.24712,2.32837 -35.52179,0 -37.24713,-0.10535 -37.24713,-2.27543 0,-1.76015 2.08194,-2.93551 9.19335,-5.19017 l 9.19333,-2.91475 -0.33951,-42.41092 -0.33952,-42.410942 -3.38717,-3.384725 c -3.09895,-3.096715 -4.1381,-3.377118 -12.21217,-3.295248 -11.63684,0.117969 -19.86889,3.679173 -27.10228,11.724443 -7.44884,8.284912 -8.09201,12.397362 -7.69618,49.208952 l 0.32789,30.49245 9.46444,2.91948 c 7.43799,2.29438 9.46443,3.41379 9.46443,5.22818 0,2.21445 -1.54516,2.30868 -37.85773,2.30868 -36.42539,0 -37.85774,-0.088 -37.85774,-2.32837 0,-1.93067 1.98156,-2.80607 11.60156,-5.12523 l 11.60156,-2.79686 0,-44.94468 0,-44.944697 -5.19017,-0.0085 c -2.85459,-0.0049 -8.89962,-0.359025 -13.43338,-0.787208 l -8.24323,-0.778527 0,36.677202 0,36.67723 3.96896,0.69745 c 2.18292,0.3836 7.40363,1.06529 11.60157,1.51486 6.35152,0.68023 7.63261,1.2009 7.63261,3.10213 0,1.25657 -0.32651,2.28469 -0.72557,2.28469 -0.39906,0 -12.71215,2.47296 -27.36243,5.49547 -14.65029,3.02251 -26.86137,5.49548 -27.13573,5.49548 -0.27436,0 -0.26172,-6.19479 0.0281,-13.76622 0.71112,-18.57802 0.38709,-19.88445 -3.40072,-13.71117 -4.14681,6.75838 -13.13221,16.226 -18.82132,19.83139 -12.10062,7.6686 -32.29758,10.1766 -42.95863,5.33447 -5.74218,-2.60805 -12.15606,-9.83463 -14.20663,-16.00673 -0.90929,-2.7369 -1.66893,-19.61513 -2.11202,-46.92592 l -0.69199,-42.651628 -6.7167,-1.565759 c -10.25707,-2.39107 -12.09455,-2.160968 -13.48882,1.689115 -4.07877,11.262982 -12.65396,19.736752 -26.57862,26.264281 -7.17339,3.362707 -9.82409,5.177167 -9.04386,6.190717 0.60707,0.788579 6.02819,7.478814 12.04695,14.867174 6.01876,7.38837 17.14235,21.12709 24.7191,30.53046 15.96385,19.81246 22.82403,26.52359 30.22209,29.56542 3.62657,1.49112 5.31859,2.92073 5.32171,4.49636 0.004,2.1869 -0.79343,2.26461 -14.95534,1.4567 -24.9621,-1.42405 -35.64376,-4.54368 -46.95225,-13.71264 -4.84216,-3.92604 -21.59406,-24.21959 -41.940457,-50.80743 l -9.109977,-11.90453 -7.632607,-0.002 -7.632609,-0.002 0,33.34313 0,33.34311 11.906869,2.83966 c 13.906491,3.31655 13.838601,3.28708 12.944091,5.6181 -0.587647,1.53141 -7.26819,1.79271 -45.831856,1.79271 -42.28046,0 -45.1179094,-0.13511 -44.7337026,-2.13014 0.3183836,-1.65319 3.4830096,-2.78479 14.1335506,-5.05385 l 13.723307,-2.92372 0,-71.716422 0,-71.716402 -14.07983,-2.887776 C 12.60662,21.59138 9.5975054,20.550464 9.8785074,19.099792 10.194582,17.468014 17.081833,17.244726 66.395642,17.26744 c 62.579948,0.02882 68.839648,0.584389 83.155618,7.380036 12.16581,5.775003 18.60776,14.876833 18.74361,26.48288 0.0508,4.344077 0.25769,4.578942 4.02256,4.567511 2.18292,-0.0061 12.76171,-1.100304 23.50843,-2.430381 10.74671,-1.330089 20.77596,-2.423763 22.28721,-2.430394 l 2.74774,-0.01222 0.0689,46.100953 c 0.0484,32.350365 0.50369,47.375865 1.52652,50.375235 4.75356,13.93936 30.88921,9.36127 40.74845,-7.13775 4.93427,-8.25732 5.52722,-13.86916 5.04541,-47.751739 l -0.3724,-26.190861 -10.84961,-2.134712 c -5.96728,-1.174091 -11.60015,-2.422712 -12.51749,-2.774716 -1.72977,-0.66378 -2.36607,-4.375647 -0.75193,-4.386479 0.50375,-0.0037 12.18164,-1.367836 25.95087,-3.032135 13.76923,-1.6643 26.54621,-3.035397 28.39329,-3.046901 l 3.35835,-0.02088 0,13.433391 c 0,7.388364 0.29314,13.43339 0.65142,13.43339 0.71567,0 53.61085,-13.144854 57.0511,-14.177625 1.94479,-0.58384 2.13713,0.568331 2.13713,12.802033 0,7.393983 0.48841,13.745462 1.08534,14.114391 0.59695,0.368942 2.6101,-1.328233 4.47364,-3.771485 12.05428,-15.803969 27.76889,-23.633524 47.38732,-23.610003 17.17455,0.02063 26.75332,6.715291 30.04861,21.001262 0.66516,2.883649 1.22281,14.997465 1.23923,26.919609 0.0277,20.12865 0.97055,25.8896 3.12575,19.09918 1.23434,-3.88906 8.6328,-11.56321 14.38565,-14.92168 8.10555,-4.73196 22.84045,-9.4656 42.17267,-13.5481 l 17.89309,-3.778599 0.3857,-9.148578 c 0.83832,-19.883152 -4.59614,-30.66622 -16.34293,-32.427753 -8.38275,-1.257073 -14.57917,1.107399 -22.11092,8.437244 -3.55673,3.461369 -9.12368,10.964565 -12.37104,16.673756 -4.8488,8.524732 -6.48964,10.44942 -9.17888,10.766765 l -3.27463,0.386418 0,-15.856237 0,-15.856238 11.29627,-3.734592 c 17.2398,-5.699568 25.88718,-7.430423 41.21608,-8.249775 16.19614,-0.865721 25.73873,0.650262 32.35479,5.140031 l 4.3902,2.979281 40.24594,0 c 38.52485,0 40.24593,0.09782 40.24593,2.287768 0,1.965549 -2.16204,2.684333 -15.35051,5.103345 -12.58671,2.308651 -15.25237,3.161036 -14.8054,4.734232 0.2998,1.055254 4.75709,17.03122 9.90508,35.502132 11.47758,41.1814 10.4597,37.85776 11.59412,37.85776 0.52164,0 4.0312,-7.55629 7.79899,-16.79176 3.76781,-9.23545 11.3131,-27.507922 16.76735,-40.605478 5.45423,-13.097555 10.21496,-24.775447 10.5794,-25.950868 0.47328,-1.52646 1.94248,-2.137131 5.14161,-2.137131 l 4.479,0 13.9537,42.829279 c 7.67453,23.556118 14.31297,43.051358 14.75211,43.322758 0.73255,0.45275 27.99707,-72.59242 27.99707,-75.007768 0,-0.582594 -6.72969,-2.366683 -14.95486,-3.964634 -11.87629,-2.307282 -15.03719,-3.345317 -15.35476,-5.042504 -0.37232,-1.989717 1.73745,-2.137131 30.58645,-2.137131 19.42181,0 31.45093,0.4646 32.23121,1.244873 0.84569,0.845681 2.97991,0.626778 6.65563,-0.682661 17.5496,-6.251862 29.53431,-8.348742 48.15337,-8.425056 16.87546,-0.06912 18.78014,0.152335 24.18235,2.812256 3.22525,1.588023 6.72313,4.198375 7.77306,5.800783 l 1.90897,2.913458 37.10668,0 c 35.01816,0 37.10668,0.124625 37.10668,2.214286 0,1.802126 -2.2845,2.745285 -12.27298,5.066941 -7.54355,1.753363 -12.06438,3.370731 -11.73168,4.197092 0.29771,0.739447 4.37978,10.412001 9.07131,21.494548 12.97992,30.661927 20.63076,48.914037 22.90776,54.649507 1.13329,2.85459 2.41935,5.19017 2.85792,5.19017 0.43856,0 6.77801,-17.99769 14.08767,-39.99489 7.30964,-21.997182 13.52066,-40.619672 13.80228,-41.383311 0.32036,-0.868762 -3.97365,-2.468556 -11.47253,-4.274261 -8.5562,-2.060291 -11.98455,-3.409846 -11.98455,-4.717648 0,-1.565001 4.047,-1.879648 27.78271,-2.160065 27.16309,-0.320911 27.78273,-0.273247 27.78273,2.137131 0,1.493207 -0.84275,2.507403 -2.13713,2.571969 -1.17542,0.05861 -5.60787,1.295114 -9.84981,2.747739 l -7.71265,2.641138 -24.92995,62.282098 c -13.71149,34.25516 -26.91018,66.20773 -29.33045,71.00575 -8.88918,17.62221 -21.00961,27.43404 -36.68857,29.7004 -4.63108,0.66941 -8.69495,1.16337 -9.03078,1.09767 -0.33583,-0.0657 -3.08358,-0.54602 -6.10609,-1.06739 z M 509.0681,152.40967 c 9.39442,-4.51739 14.65461,-18.04036 14.65461,-37.67432 0,-11.73752 0.24909,-11.56848 -11.60157,-7.8732 -16.73398,5.21802 -25.4969,11.00882 -29.99176,19.8195 -2.86756,5.62087 -3.12242,15.62322 -0.52603,20.64411 4.13873,8.00342 16.59732,10.30959 27.46475,5.08391 z m 291.87094,0.35875 c 4.18129,-2.15208 7.74902,-6.27261 11.07798,-12.79441 2.3534,-4.61057 2.89182,-7.9309 3.34375,-20.62 l 0.53868,-15.12451 -4.73246,0.88111 c -15.4379,2.87431 -29.94425,10.73148 -35.60449,19.28468 -2.78987,4.21578 -3.31619,6.32832 -3.31888,13.32097 -0.002,7.67731 0.28704,8.60107 3.80539,12.1223 5.90912,5.914 16.63836,7.17695 24.89003,2.92986 z M 98.69546,94.012974 C 118.75347,89.037296 127.90645,78.900349 129.00941,60.440221 129.94268,44.820082 124.33613,33.2044 113.09557,27.469893 107.37992,24.553992 94.916488,23.298483 83.656426,24.504326 l -8.120473,0.869628 0,36.10269 0,36.102676 7.588986,-0.793206 c 4.17395,-0.436267 11.180684,-1.684181 15.570521,-2.77314 z"
     id="path4446" />
</svg>
