<svg xmlns="http://www.w3.org/2000/svg" fill="var(--ink-main)" viewBox="0.13 -0.03 91.48 36.03">
  <path d="m55.564 22.977 2.917-9.602h7.417l-1.55 5.03c-.723 2.387-3.786 6.964-7.12 6.964-1.628-.01-2.003-1.221-1.664-2.392zM40.159 4.01A4.033 4.033 0 1 0 44.209 0a4.051 4.051 0 0 0-4.05 4.01zm-5.113 17.938c-1.285 4.203-.26 7.838 3.659 7.838 2.953 0 6.323-1.514 9.602-5.071.15 2.95 1.829 5.07 5.601 5.07 2.538 0 5.68-1.174 8.935-5.07.073 3.064 1.83 5.07 5.602 5.07 2.84 0 5.98-1.37 9.044-5.07.041 2.913 1.514 5.07 5.149 5.07 3.974 0 6.626-3.52 8.971-7.722l-1.513-.869c-1.024 1.966-2.803 4.161-4.431 4.161-1.248 0-1.248-1.285-.915-2.382l6.622-21.345h-7.115l-5.3 17.225c-.796 2.533-4.202 6.507-7.344 6.507-1.627 0-1.893-1.372-1.59-2.383l2.953-9.602h4.998l.796-2.497h-5.003l2.575-8.29-7.49 1.198-2.195 7.079h-7.385l2.538-8.29-7.495 1.211-2.194 7.079h-2.387l-.791 2.496h2.418l-1.7 5.565c-.645 2.158-4.468 6.434-6.777 6.434-1.372 0-1.4-1.212-1.061-2.31l3.786-12.186h-7.156l-3.407 11.084zM.148 11.962c0 4.239 2.575 7.266 3.293 8.061l5.601-4.16c-.302-.344-1.737-2.744-1.737-4.546 0-2.574 2.382-5.679 8.23-6.735L8.022 29.338h7.344l3.987-12.95a32.595 32.595 0 0 0 3.558-.416c.114 8.441.873 16.004 3.2 20.028l8.231-3.937c-2.853-3.407-6.447-11.207-6.758-17.527 6.973-2.954 10.567-8.82 10.567-14.234l-8.025 1.326c-.713 5.98-5.565 10.146-9.611 11.015L24.383.078 13.702 1.829C5.562 3.141.148 6.283.148 11.962z"/>
</svg>
