<?xml version="1.0" encoding="UTF-8" standalone="no"?>
<svg
   xmlns:dc="http://purl.org/dc/elements/1.1/"
   xmlns:cc="http://creativecommons.org/ns#"
   xmlns:rdf="http://www.w3.org/1999/02/22-rdf-syntax-ns#"
   xmlns:svg="http://www.w3.org/2000/svg"
   xmlns="http://www.w3.org/2000/svg"
   xmlns:sodipodi="http://sodipodi.sourceforge.net/DTD/sodipodi-0.dtd"
   xmlns:inkscape="http://www.inkscape.org/namespaces/inkscape"
   xml:space="preserve"
   viewBox="0 0 1000 203.83218"
   version="1.1"
   id="svg75"
   sodipodi:docname="A.svg"
   width="1000"
   height="203.83218"
   inkscape:version="0.92.4 (5da689c313, 2019-01-14)"><metadata
   id="metadata81"><rdf:RDF><cc:Work
       rdf:about=""><dc:format>image/svg+xml</dc:format><dc:type
         rdf:resource="http://purl.org/dc/dcmitype/StillImage" /><dc:title></dc:title></cc:Work></rdf:RDF></metadata><defs
   id="defs79" /><sodipodi:namedview
   pagecolor="#ffffff"
   bordercolor="#111111"
   borderopacity="1"
   objecttolerance="10"
   gridtolerance="10"
   guidetolerance="10"
   inkscape:pageopacity="0"
   inkscape:pageshadow="2"
   inkscape:window-width="1920"
   inkscape:window-height="1017"
   id="namedview77"
   showgrid="false"
   fit-margin-top="0"
   fit-margin-left="0"
   fit-margin-right="0"
   fit-margin-bottom="0"
   inkscape:zoom="0.67276423"
   inkscape:cx="486.79758"
   inkscape:cy="33.947381"
   inkscape:window-x="-8"
   inkscape:window-y="-8"
   inkscape:window-maximized="1"
   inkscape:current-layer="svg75" />
                <path
   d="M 0,200.51218 V 57.084843 h 54.172958 c 9.662083,0 18.438559,1.552871 25.376485,4.491287 17.318287,7.741909 28.084317,24.362323 28.084317,43.3702 0,19.0038 -10.76603,35.62217 -28.100642,43.3702 -6.91752,2.93433 -15.691956,4.4872 -25.36016,4.4872 H 24.778599 v 47.70845 z M 24.778599,129.6882 h 28.561808 c 8.072481,0 13.194303,-1.12231 17.679468,-3.86892 6.893034,-4.1301 11.004775,-11.93731 11.004775,-20.87499 0,-8.937682 -4.111741,-16.74693 -11.008856,-20.879077 C 66.530629,81.320651 61.408807,80.20242 53.340407,80.20242 H 24.778599 v 49.48374 M 212.73313,200.51422 201.7406,171.47288 h -65.11855 l -10.99049,29.04134 H 98.926662 L 156.50329,57.082802 h 26.1825 l 57.57663,143.431418 z m -57.4501,-78.03942 -9.7886,25.88254 h 47.37379 l -9.7886,-25.88867 A 5775.8805,5775.8805 0 0 0 169.42823,86.773044 h -0.48361 c 0,0 -8.33163,21.542256 -13.66159,35.699716 M 360.45586,200.51422 305.54422,125.98865 284.23458,97.359503 V 200.51422 h -24.7786 V 57.082802 h 25.00919 l 54.91368,74.527608 21.30556,28.60874 V 57.082802 H 385.463 V 200.51422 h -25.00714 m 55.8095,0 V 57.082802 h 47.44317 c 21.74427,0 40.13998,5.176917 53.19144,14.965515 17.43256,12.810676 27.0273,32.961273 27.0273,56.750193 0,23.78484 -9.59474,43.93748 -27.01914,56.73999 -13.05962,9.80084 -31.45125,14.97776 -53.19756,14.97776 z m 24.77247,-23.53794 h 21.63205 c 15.95723,0 27.85985,-2.8323 36.38738,-8.65608 12.38216,-8.39897 19.25274,-22.81149 18.84871,-39.54005 0.40403,-16.6898 -6.46655,-31.104359 -18.85075,-39.505371 -8.52957,-5.827858 -20.43423,-8.660164 -36.38534,-8.660164 h -21.63205 v 96.361665 m 195.65972,26.8559 c -43.36816,0 -76.07436,-32.25728 -76.07436,-75.03163 0,-42.780475 32.7062,-75.031628 76.07436,-75.031628 43.36816,0 76.07027,32.251153 76.07027,75.031628 0,42.77435 -32.70211,75.03163 -76.07027,75.03163 m 0,-126.535526 c -29.00257,0 -50.0551,21.658572 -50.0551,51.503896 0,29.8392 21.05253,51.50186 50.0551,51.50186 29.00053,0 50.04897,-21.66266 50.04897,-51.5039 0,-29.843284 -21.04844,-51.503897 -50.04897,-51.503897 M 819.8241,200.51422 792.4397,152.80169 h -33.22654 v 47.71253 h -24.7786 V 57.082802 h 57.49092 c 9.67432,0 18.44876,1.554912 25.37648,4.495368 17.31625,7.741909 28.08636,24.364364 28.08636,43.36816 0,18.08554 -9.97225,33.68363 -26.67428,41.72142 l -0.86316,0.41628 31.03089,53.43019 z m -60.61094,-70.82806 h 31.88181 c 8.07044,0 13.19022,-1.12231 17.68151,-3.8628 6.88895,-4.13214 11.00681,-11.93731 11.00681,-20.87499 0,-8.943803 -4.11786,-16.753051 -11.01089,-20.889279 -4.48109,-2.734359 -9.60291,-3.856671 -17.67743,-3.856671 h -31.88181 v 49.48374 m 213.2596,70.82806 -10.99253,-29.04134 h -65.1206 L 885.3671,200.51422 H 858.66629 L 916.24291,57.082802 h 26.18047 L 1000,200.51422 Z m -57.45011,-78.03942 -9.7886,25.88254 h 47.37379 l -9.79063,-25.88663 C 937.48725,108.31735 929.16786,86.775085 929.16786,86.775085 h -0.48362 c 0,0 -8.33163,21.542265 -13.66159,35.699715 M 641.82957,42.51928 c 0,-2.903727 -2.46092,-5.138147 -5.13814,-5.138147 -2.90169,0 -5.36261,2.23442 -5.36261,5.136106 0,3.126148 2.46092,5.362609 5.36261,5.362609 2.67722,0 5.13814,-2.236461 5.13814,-5.362609 M 635.85683,0 631.83692,31.500221 h 9.48659 L 637.51377,0 h -1.65898 m 20.73828,42.51928 c 0,-2.903727 -2.46092,-5.138147 -5.13815,-5.138147 -2.90372,0 -5.3626,2.23442 -5.3626,5.136106 0,3.126148 2.45888,5.362609 5.3626,5.362609 2.67723,0 5.13611,-2.236461 5.13611,-5.362609 M 661.68224,0 648.11248,31.500221 h 9.72738 L 663.34122,0 h -1.65898 m -45.11488,42.51928 c 0,3.124107 2.45888,5.360568 5.1361,5.360568 2.90373,0 5.36261,-2.236461 5.36261,-5.362609 0,-2.901686 -2.45888,-5.136106 -5.36261,-5.136106 -2.67722,0 -5.1361,2.23442 -5.1361,5.136106 M 609.81308,0 l 5.50137,31.500221 h 9.72738 L 611.47615,0 h -1.66307"
   id="path73"
   inkscape:connector-curvature="0"
   style="fill:#100f0d;stroke-width:2.04056644" /></svg>