<?xml version="1.0" encoding="UTF-8" standalone="no"?>
<!-- Created with Inkscape (http://www.inkscape.org/) -->

<svg
   xmlns:dc="http://purl.org/dc/elements/1.1/"
   xmlns:cc="http://creativecommons.org/ns#"
   xmlns:rdf="http://www.w3.org/1999/02/22-rdf-syntax-ns#"
   xmlns:svg="http://www.w3.org/2000/svg"
   xmlns="http://www.w3.org/2000/svg"
   xmlns:sodipodi="http://sodipodi.sourceforge.net/DTD/sodipodi-0.dtd"
   xmlns:inkscape="http://www.inkscape.org/namespaces/inkscape"
   width="178.62498"
   height="29.487539"
   viewBox="0 0 47.261192 7.8019115"
   version="1.1"
   id="svg5171"
   inkscape:version="0.92.0 r15299"
   sodipodi:docname="puhu tv.svg">
  <defs
     id="defs5165" />
  <sodipodi:namedview
     id="base"
     pagecolor="#ffffff"
     bordercolor="#666666"
     borderopacity="1.0"
     inkscape:pageopacity="0.0"
     inkscape:pageshadow="2"
     inkscape:zoom="5.0499654"
     inkscape:cx="88.812488"
     inkscape:cy="14.243767"
     inkscape:document-units="mm"
     inkscape:current-layer="layer1"
     showgrid="false"
     fit-margin-top="0"
     fit-margin-left="0"
     fit-margin-right="0"
     fit-margin-bottom="0"
     units="px"
     inkscape:window-width="1280"
     inkscape:window-height="744"
     inkscape:window-x="-4"
     inkscape:window-y="-4"
     inkscape:window-maximized="1" />
  <metadata
     id="metadata5168">
    <rdf:RDF>
      <cc:Work
         rdf:about="">
        <dc:format>image/svg+xml</dc:format>
        <dc:type
           rdf:resource="http://purl.org/dc/dcmitype/StillImage" />
        <dc:title></dc:title>
      </cc:Work>
    </rdf:RDF>
  </metadata>
  <g
     inkscape:label="Layer 1"
     inkscape:groupmode="layer"
     id="layer1"
     transform="translate(-91.406458,-187.88937)">
    <g
       id="g5228"
       transform="translate(0.13229246,-0.13229153)">
      <path
         id="Fill-1"
         d="m 123.48723,190.07427 h -1.05724 c -0.0339,0 -0.0615,0.027 -0.0615,0.0602 v 1.77203 c 0,0.40214 -0.32024,0.73286 -0.72286,0.73286 -0.40257,0 -0.72285,-0.33072 -0.72285,-0.73286 v -1.77203 c 0,-0.0332 -0.0276,-0.0602 -0.0615,-0.0602 h -1.05724 c -0.0342,0 -0.0618,0.027 -0.0618,0.0602 v 1.77203 c 0,1.02778 0.86018,1.88563 1.90341,1.88563 1.04309,0 1.90327,-0.85785 1.90327,-1.88563 v -1.77203 c 0,-0.0332 -0.0276,-0.0602 -0.0617,-0.0602"
         inkscape:connector-curvature="0"
         style="fill:#000000;fill-rule:evenodd;stroke:none;stroke-width:0.26458332" />
      <path
         id="Fill-3"
         d="m 132.311,190.13444 c 0,-0.0331 -0.0275,-0.0602 -0.0615,-0.0602 h -1.05724 c -0.034,0 -0.0616,0.027 -0.0616,0.0602 l 1.4e-4,1.77202 c 0,0.40215 -0.32024,0.73286 -0.72286,0.73286 -0.40257,0 -0.72285,-0.33071 -0.72285,-0.73286 v -1.77202 c 0,-0.0331 -0.0276,-0.0602 -0.0617,-0.0602 h -1.0571 c -0.034,0 -0.0617,0.027 -0.0617,0.0602 v 1.77202 c 0,1.02778 0.86004,1.88568 1.90327,1.88568 1.04295,0 1.90313,-0.8579 1.90313,-1.88568 z"
         inkscape:connector-curvature="0"
         style="fill:#000000;fill-rule:evenodd;stroke:none;stroke-width:0.26458332" />
      <path
         id="Fill-5"
         d="m 117.34655,192.64082 c -0.40257,0 -0.72286,-0.33072 -0.72286,-0.73295 0,-0.3931 0.32029,-0.71487 0.72286,-0.71487 0.40257,0 0.72285,0.32177 0.72285,0.71487 0,0.40223 -0.32028,0.73295 -0.72285,0.73295 m 0,-2.60077 c -0.25538,0 -0.49939,0.0516 -0.72286,0.14408 v -0.0513 c 0,-0.0332 -0.0275,-0.0601 -0.0617,-0.0601 h -1.05709 c -0.0342,0 -0.0617,0.0268 -0.0617,0.0601 v 5.42031 c 0,0.0332 0.0275,0.0602 0.0617,0.0602 h 1.05709 c 0.0342,0 0.0617,-0.0269 0.0617,-0.0602 v -1.90403 c 0.22347,0.0927 0.46748,0.1444 0.72286,0.1444 1.04309,0 1.90327,-0.85789 1.90327,-1.88567 0,-1.00979 -0.86018,-1.86782 -1.90327,-1.86782"
         inkscape:connector-curvature="0"
         style="fill:#000000;fill-rule:evenodd;stroke:none;stroke-width:0.26458332" />
      <path
         id="Fill-7"
         d="m 126.02675,190.04162 c -0.25524,0 -0.49952,0.0517 -0.72285,0.14436 v -1.92345 c 0,-0.0332 -0.0276,-0.0601 -0.0617,-0.0601 h -1.0571 c -0.034,0 -0.0617,0.0269 -0.0617,0.0601 v 5.4367 9e-5 c 0,0.0331 0.0276,0.0601 0.0617,0.0601 h 1.0571 1.4e-4 c 0.0339,0 0.0615,-0.027 0.0615,-0.0601 v -1.77193 c 0,-0.40219 0.32009,-0.73291 0.72285,-0.73291 0.40258,0 0.72286,0.33072 0.72286,0.73291 v 1.77193 c 0,0.0331 0.0276,0.0601 0.0615,0.0601 h 1.05723 c 0.0339,0 0.0615,-0.027 0.0615,-0.0601 v -1.77193 c 0,-1.02782 -0.86004,-1.88577 -1.90313,-1.88577"
         inkscape:connector-curvature="0"
         style="fill:#000000;fill-rule:evenodd;stroke:none;stroke-width:0.26458332" />
      <path
         id="Fill-9"
         d="m 134.94487,193.22062 v 0.55724 c -0.0731,0.009 -0.14385,0.0142 -0.21223,0.0142 -0.40455,0 -0.7215,-0.12857 -0.95056,-0.38571 -0.21454,-0.24272 -0.32178,-0.56665 -0.32178,-0.97136 v -3.14636 h 0.61438 v 0.7856 h 0.59855 l 0.21012,0.57868 h -0.80867 v 1.78208 c 0,0.55715 0.29002,0.81897 0.87019,0.7856"
         inkscape:connector-curvature="0"
         style="fill:#000000;fill-rule:evenodd;stroke:none;stroke-width:0.26458332" />
      <polygon
         transform="matrix(0.26458333,0,0,0.26458333,91.406458,188.10809)"
         points="164.77168,7.4312908 167.25967,7.4312908 171.18483,18.28403 171.21236,18.28403 175.13752,7.4312908 177.62498,7.4312908 172.45556,21.334601 169.94057,21.334601 "
         id="Fill-11"
         style="fill:#000000;fill-rule:evenodd;stroke:none;stroke-width:1" />
      <path
         id="Fill-13"
         d="m 107.81178,193.79961 c -1.06147,0 -1.92198,-0.84027 -1.92198,-1.87687 0,-1.03672 0.86051,-1.87695 1.92198,-1.87695 1.06118,0 1.92164,0.84023 1.92164,1.87695 0,1.0366 -0.86046,1.87687 -1.92164,1.87687 m -12.546782,0 c -1.061325,0 -1.921504,-0.84027 -1.921504,-1.87687 0,-1.03672 0.860179,-1.87695 1.921504,-1.87695 1.061512,0 1.921644,0.84023 1.921644,1.87695 0,1.0366 -0.860132,1.87687 -1.921644,1.87687 m 15.276062,-4.54309 c -1.50493,-1.47009 -3.95406,-1.47009 -5.45917,0 l -3.27102,3.19496 c -0.07,0.0683 -0.16589,0.10998 -0.27253,0.10998 -0.10668,0 -0.20255,-0.0417 -0.27244,-0.10998 l -3.27101,-3.19496 c -1.505255,-1.47009 -3.95406,-1.47009 -5.459597,0 -1.505113,1.47017 -1.505113,3.862 0,5.33227 1.505537,1.46985 3.954342,1.47008 5.459597,1.4e-4 l 1.087737,-1.06271 c 0.07007,-0.0683 0.165333,-0.10916 0.271969,-0.10916 0.106353,0 0.202837,0.0422 0.272674,0.11026 l 1.63849,1.5998 c 0.0697,0.0684 0.1659,0.11007 0.27258,0.11007 0.10664,0 0.20293,-0.0417 0.27282,-0.11007 l 1.63802,-1.5998 c 0.0701,-0.068 0.1665,-0.11026 0.27286,-0.11026 0.10682,0 0.20204,0.0409 0.27192,0.10916 l 1.08793,1.06271 c 1.50511,1.46994 3.95424,1.46971 5.45917,-1.4e-4 1.50539,-1.47027 1.50539,-3.8621 0,-5.33227"
         inkscape:connector-curvature="0"
         style="fill:#000000;fill-rule:evenodd;stroke:none;stroke-width:0.26458332" />
    </g>
  </g>
</svg>
